  0
SECTION
  2
HEADER
  9
$ANGBASE
  50
0.0
  9
$ANGDIR
  70
1
  9
$MEASUREMENT
  70
1
  0
ENDSEC
  0
SECTION
  2
TABLES
  0
TABLE
  2
LTYPE
  70
4
  0
LTYPE
  5
40F
  2
CONTINUOUS
  70
0
  3
Solid line
  72
65
  73
0
  40
0.0
  0
LTYPE
  5
410
  2
DASHDOT
 70
0
  3
Dash Dot ____ _ ____ _
 72
65
 73
4
 40
2.0
 49
1.25
 49
-0.25
 49
0.25
 49
-0.25
  0
LTYPE
  5
411
  2
DASHED
 70
0
  3
Dashed __ __ __ __ __
 72
65
 73
2
 40
0.75
 49
0.5
 49
-0.25
  0
LTYPE
  5
43B
  2
DOTTED
 70
0
  3
Dotted .  .  .  .
 72
65
 73
2
 40
0.2
 49
0.0
 49
-0.2
  0
ENDTAB
  0
TABLE
  2
STYLE
  70
4
  0
STYLE
  2
KICAD
  70
0
  40
0
  41
1
  42
1
  50
0
  71
0
  3
isocp.shx
  0
STYLE
  2
KICADB
  70
0
  40
0
  41
1
  42
1
  50
0
  71
0
  3
isocp.shx
  0
STYLE
  2
KICADI
  70
0
  40
0
  41
1
  42
1
  50
15
  71
0
  3
isocp.shx
  0
STYLE
  2
KICADBI
  70
0
  40
0
  41
1
  42
1
  50
15
  71
0
  3
isocp.shx
  0
ENDTAB
  0
TABLE
  2
LAYER
  70
1
  0
LAYER
  2
BLACK
  70
0
  62
7
  6
CONTINUOUS
  0
ENDTAB
  0
ENDSEC
  0
SECTION
  2
ENTITIES
0
LINE
8
BLACK
6
CONTINUOUS
10
262.528
20
-30.2325
11
262.528
21
-34.995
0
ARC
8
BLACK
10
260.147
20
-30.2325
40
2.38126
50
-0
51
90
0
LINE
8
BLACK
6
CONTINUOUS
10
42.2613
20
-27.8513
11
52.9774
21
-27.8514
0
LINE
8
BLACK
6
CONTINUOUS
10
39.88
20
-49.2826
11
39.88
21
-30.2325
0
ARC
8
BLACK
10
42.2613
20
-30.2325
40
2.38126
50
90
51
180
0
LINE
8
BLACK
6
CONTINUOUS
10
260.147
20
-37.3763
11
238.715
21
-37.3763
0
LINE
8
BLACK
6
CONTINUOUS
10
233.953
20
-52.8545
11
158.943
21
-52.8545
0
LINE
8
BLACK
6
CONTINUOUS
10
236.334
20
-39.7576
11
236.334
21
-50.4732
0
ARC
8
BLACK
10
233.953
20
-50.4732
40
2.38126
50
-90
51
-0
0
ARC
8
BLACK
10
238.715
20
-39.7576
40
2.38126
50
90
51
180
0
ARC
8
BLACK
10
260.147
20
-34.995
40
2.38126
50
-90
51
-0
0
LINE
8
BLACK
6
CONTINUOUS
10
264.909
20
-51.6639
11
254.193
21
-51.6639
0
LINE
8
BLACK
6
CONTINUOUS
10
267.29
20
-58.8076
11
267.29
21
-54.0451
0
LINE
8
BLACK
6
CONTINUOUS
10
251.81
20
-56.4264
11
251.812
21
-54.0451
0
ARC
8
BLACK
10
254.193
20
-54.0451
40
2.38126
50
90
51
180
0
ARC
8
BLACK
10
264.909
20
-54.0451
40
2.38126
50
-0
51
90
0
LINE
8
BLACK
6
CONTINUOUS
10
43.4519
20
-52.8545
11
144.655
21
-52.8545
0
LINE
8
BLACK
6
CONTINUOUS
10
155.371
20
-49.2826
11
155.371
21
-48.092
0
LINE
8
BLACK
6
CONTINUOUS
10
148.227
20
-49.2826
11
148.227
21
-48.092
0
ARC
8
BLACK
10
144.655
20
-49.2826
40
3.57189
50
-90
51
-0
0
ARC
8
BLACK
10
158.943
20
-49.2826
40
3.57189
50
180
51
270
0
ARC
8
BLACK
10
151.799
20
-48.092
40
3.57189
50
-0
51
180
0
ARC
8
BLACK
10
43.4519
20
-49.2826
40
3.57189
50
180
51
270
0
CIRCLE
8
BLACK
10
267.29
20
-49.2826
40
1.1
0
CIRCLE
8
BLACK
10
151.799
20
-48.092
40
1.1
0
CIRCLE
8
BLACK
10
36.3081
20
-49.2826
40
1.1
0
CIRCLE
8
BLACK
10
36.3086
20
-154.058
40
1.1
0
CIRCLE
8
BLACK
10
36.3086
20
-56.4264
40
1.1
0
CIRCLE
8
BLACK
10
36.3086
20
-27.8514
40
1.1
0
LINE
8
BLACK
6
CONTINUOUS
10
245.579
20
-58.8076
11
154.459
21
-58.8082
0
ARC
8
BLACK
10
151.799
20
-56.4264
40
3.57061
50
-138.172
51
-41.8418
0
LINE
8
BLACK
6
CONTINUOUS
10
149.139
20
-58.8076
11
38.9699
21
-58.8088
0
LINE
8
BLACK
6
CONTINUOUS
10
36.3086
20
-59.9982
11
36.3086
21
-68.3326
0
LINE
8
BLACK
6
CONTINUOUS
10
38.6899
20
-70.7139
11
251.812
21
-70.7139
0
LINE
8
BLACK
6
CONTINUOUS
10
253.002
20
-71.9045
11
263.718
21
-71.9045
0
LINE
8
BLACK
6
CONTINUOUS
10
268.481
20
-64.7608
11
268.481
21
-59.9982
0
ARC
8
BLACK
10
248.24
20
-56.4264
40
3.57061
50
-138.172
51
-1.22364e-06
0
LINE
8
BLACK
6
CONTINUOUS
10
267.29
20
-68.3326
11
267.29
21
-65.9514
0
LINE
8
BLACK
6
CONTINUOUS
10
154.18
20
-154.058
11
155.371
21
-154.058
0
LINE
8
BLACK
6
CONTINUOUS
10
148.227
20
-154.058
11
149.418
21
-154.058
0
ARC
8
BLACK
10
151.799
20
-154.058
40
2.38125
50
-0
51
180
0
ARC
8
BLACK
10
267.29
20
-64.7608
40
1.19063
50
-90
51
-0
0
ARC
8
BLACK
10
267.29
20
-59.9982
40
1.19063
50
-0
51
90
0
LINE
8
BLACK
6
CONTINUOUS
10
231.571
20
-27.8514
11
260.147
21
-27.8514
0
LINE
8
BLACK
6
CONTINUOUS
10
157.752
20
-27.8514
11
177.993
21
-27.8514
0
LINE
8
BLACK
6
CONTINUOUS
10
125.605
20
-27.8514
11
145.846
21
-27.8514
0
LINE
8
BLACK
6
CONTINUOUS
10
63.693
20
-27.8514
11
72.0274
21
-27.8514
0
LINE
8
BLACK
6
CONTINUOUS
10
179.184
20
-26.6608
11
230.38
21
-26.6608
0
LINE
8
BLACK
6
CONTINUOUS
10
147.037
20
-26.6608
11
156.562
21
-26.6608
0
LINE
8
BLACK
6
CONTINUOUS
10
73.218
20
-26.6608
11
124.415
21
-26.6608
0
LINE
8
BLACK
6
CONTINUOUS
10
54.168
20
-26.6608
11
62.5024
21
-26.6608
0
ARC
8
BLACK
10
230.38
20
-27.8514
40
1.19063
50
-0
51
90
0
ARC
8
BLACK
10
179.184
20
-27.8514
40
1.19063
50
90
51
180
0
ARC
8
BLACK
10
156.562
20
-27.8514
40
1.19063
50
-0
51
90
0
ARC
8
BLACK
10
147.037
20
-27.8514
40
1.19063
50
90
51
180
0
ARC
8
BLACK
10
124.415
20
-27.8514
40
1.19063
50
-0
51
90
0
ARC
8
BLACK
10
73.218
20
-27.8514
40
1.19063
50
90
51
180
0
ARC
8
BLACK
10
62.5024
20
-27.8514
40
1.19063
50
-0
51
90
0
ARC
8
BLACK
10
54.168
20
-27.8514
40
1.19063
50
90
51
180
0
ARC
8
BLACK
10
263.718
20
-68.3326
40
3.57187
50
-90
51
-0
0
ARC
8
BLACK
10
253.002
20
-70.7139
40
1.19063
50
180
51
270
0
LINE
8
BLACK
6
CONTINUOUS
10
187.518
20
-133.817
11
193.471
21
-133.817
0
LINE
8
BLACK
6
CONTINUOUS
10
110.127
20
-133.817
11
116.081
21
-133.817
0
LINE
8
BLACK
6
CONTINUOUS
10
118.462
20
-131.436
11
185.137
21
-131.436
0
ARC
8
BLACK
10
185.137
20
-133.817
40
2.38125
50
-0
51
90
0
ARC
8
BLACK
10
118.462
20
-133.817
40
2.38125
50
90
51
180
0
LINE
8
BLACK
6
CONTINUOUS
10
267.29
20
-136.198
11
267.29
21
-150.486
0
LINE
8
BLACK
6
CONTINUOUS
10
267.29
20
-117.148
11
267.29
21
-125.483
0
LINE
8
BLACK
6
CONTINUOUS
10
36.3086
20
-136.198
11
36.3086
21
-150.486
0
LINE
8
BLACK
6
CONTINUOUS
10
36.3086
20
-117.148
11
36.3086
21
-125.483
0
LINE
8
BLACK
6
CONTINUOUS
10
38.6899
20
-133.817
11
110.127
21
-133.817
0
ARC
8
BLACK
10
264.909
20
-125.483
40
2.38125
50
-90
51
-0
0
ARC
8
BLACK
10
264.909
20
-136.198
40
2.38125
50
-0
51
90
0
LINE
8
BLACK
6
CONTINUOUS
10
264.909
20
-133.817
11
193.471
21
-133.817
0
ARC
8
BLACK
10
38.6899
20
-136.198
40
2.38125
50
90
51
180
0
LINE
8
BLACK
6
CONTINUOUS
10
38.6899
20
-127.864
11
264.909
21
-127.864
0
ARC
8
BLACK
10
38.6899
20
-125.483
40
2.38125
50
180
51
270
0
ARC
8
BLACK
10
38.6899
20
-68.3326
40
2.38125
50
180
51
270
0
ARC
8
BLACK
10
36.3086
20
-56.4264
40
3.57187
50
-90
51
-41.8351
0
LINE
8
BLACK
6
CONTINUOUS
10
264.909
20
-89.7639
11
38.6899
21
-89.7639
0
LINE
8
BLACK
6
CONTINUOUS
10
267.29
20
-79.2415
11
267.29
21
-87.3826
0
ARC
8
BLACK
10
264.909
20
-87.3826
40
2.38125
50
-90
51
-0
0
LINE
8
BLACK
6
CONTINUOUS
10
110.127
20
-76.667
11
38.6899
21
-76.667
0
LINE
8
BLACK
6
CONTINUOUS
10
36.3086
20
-79.0482
11
36.3086
21
-87.3826
0
ARC
8
BLACK
10
38.6899
20
-87.3826
40
2.38125
50
180
51
270
0
ARC
8
BLACK
10
38.6899
20
-79.0482
40
2.38125
50
90
51
180
0
LINE
8
BLACK
6
CONTINUOUS
10
263.718
20
-76.667
11
193.471
21
-76.667
0
ARC
8
BLACK
10
267.29
20
-75.4764
40
3.76509
50
-161.565
51
-90
0
LINE
8
BLACK
6
CONTINUOUS
10
38.6899
20
-108.814
11
264.909
21
-108.814
0
LINE
8
BLACK
6
CONTINUOUS
10
36.3086
20
-98.0982
11
36.3086
21
-106.433
0
LINE
8
BLACK
6
CONTINUOUS
10
38.6899
20
-95.717
11
110.127
21
-95.717
0
LINE
8
BLACK
6
CONTINUOUS
10
264.909
20
-95.717
11
193.471
21
-95.717
0
LINE
8
BLACK
6
CONTINUOUS
10
267.29
20
-106.433
11
267.29
21
-98.0982
0
ARC
8
BLACK
10
264.909
20
-106.433
40
2.38125
50
-90
51
-0
0
ARC
8
BLACK
10
264.909
20
-98.0982
40
2.38125
50
-0
51
90
0
ARC
8
BLACK
10
38.6899
20
-98.0982
40
2.38125
50
90
51
180
0
ARC
8
BLACK
10
38.6899
20
-106.433
40
2.38125
50
180
51
270
0
LINE
8
BLACK
6
CONTINUOUS
10
38.6899
20
-114.767
11
110.127
21
-114.767
0
LINE
8
BLACK
6
CONTINUOUS
10
264.909
20
-114.767
11
193.471
21
-114.767
0
ARC
8
BLACK
10
264.909
20
-117.148
40
2.38125
50
-0
51
90
0
ARC
8
BLACK
10
38.6899
20
-117.148
40
2.38125
50
90
51
180
0
CIRCLE
8
BLACK
10
151.799
20
-56.4264
40
1.1
0
LINE
8
BLACK
6
CONTINUOUS
10
155.371
20
-154.058
11
263.718
21
-154.058
0
LINE
8
BLACK
6
CONTINUOUS
10
39.8805
20
-154.058
11
148.227
21
-154.058
0
CIRCLE
8
BLACK
10
248.24
20
-56.4264
40
1.1
0
CIRCLE
8
BLACK
10
267.29
20
-75.4764
40
1.1
0
CIRCLE
8
BLACK
10
151.799
20
-154.058
40
1.1
0
LINE
8
BLACK
6
CONTINUOUS
10
193.471
20
-114.767
11
110.127
21
-114.767
0
LINE
8
BLACK
6
CONTINUOUS
10
110.127
20
-76.667
11
193.471
21
-76.667
0
ARC
8
BLACK
10
189.899
20
-95.717
40
3.57187
50
180
51
360
0
CIRCLE
8
BLACK
10
189.899
20
-95.717
40
1.1
0
ARC
8
BLACK
10
113.699
20
-95.717
40
3.57187
50
180
51
360
0
LINE
8
BLACK
6
CONTINUOUS
10
117.271
20
-95.717
11
186.327
21
-95.717
0
ARC
8
BLACK
10
36.3086
20
-154.058
40
3.57187
50
-0
51
90
0
ARC
8
BLACK
10
267.29
20
-154.058
40
3.57187
50
90
51
180
0
CIRCLE
8
BLACK
10
267.29
20
-154.058
40
1.1
0
CIRCLE
8
BLACK
10
113.699
20
-95.717
40
1.1
0
CIRCLE
8
BLACK
10
267.29
20
-27.8514
40
1.1
0
ARC
8
BLACK
10
37.4992
20
-29.042
40
4.7625
50
90
51
180
0
ARC
8
BLACK
10
266.099
20
-152.867
40
4.7625
50
-90
51
-0
0
LINE
8
BLACK
6
CONTINUOUS
10
266.099
20
-157.629
11
37.4992
21
-157.629
0
LINE
8
BLACK
6
CONTINUOUS
10
49.7993
20
-24.2795
11
253.799
21
-24.2795
0
LINE
8
BLACK
6
CONTINUOUS
10
270.862
20
-29.042
11
270.862
21
-152.867
0
LINE
8
BLACK
6
CONTINUOUS
10
32.7368
20
-152.867
11
32.7368
21
-29.042
0
ARC
8
BLACK
10
37.4992
20
-152.867
40
4.7625
50
180
51
270
0
LINE
8
BLACK
6
CONTINUOUS
10
253.799
20
-24.2795
11
266.099
21
-24.2795
0
LINE
8
BLACK
6
CONTINUOUS
10
37.4992
20
-24.2795
11
49.7993
21
-24.2795
0
ARC
8
BLACK
10
266.099
20
-29.042
40
4.7625
50
-0
51
90
  0
ENDSEC
  0
EOF
