  0
SECTION
  2
HEADER
  9
$ANGBASE
  50
0.0
  9
$ANGDIR
  70
1
  9
$MEASUREMENT
  70
1
  0
ENDSEC
  0
SECTION
  2
TABLES
  0
TABLE
  2
LTYPE
  70
4
  0
LTYPE
  5
40F
  2
CONTINUOUS
  70
0
  3
Solid line
  72
65
  73
0
  40
0.0
  0
LTYPE
  5
410
  2
DASHDOT
 70
0
  3
Dash Dot ____ _ ____ _
 72
65
 73
4
 40
2.0
 49
1.25
 49
-0.25
 49
0.25
 49
-0.25
  0
LTYPE
  5
411
  2
DASHED
 70
0
  3
Dashed __ __ __ __ __
 72
65
 73
2
 40
0.75
 49
0.5
 49
-0.25
  0
LTYPE
  5
43B
  2
DOTTED
 70
0
  3
Dotted .  .  .  .
 72
65
 73
2
 40
0.2
 49
0.0
 49
-0.2
  0
ENDTAB
  0
TABLE
  2
STYLE
  70
4
  0
STYLE
  2
KICAD
  70
0
  40
0
  41
1
  42
1
  50
0
  71
0
  3
isocp.shx
  0
STYLE
  2
KICADB
  70
0
  40
0
  41
1
  42
1
  50
0
  71
0
  3
isocp.shx
  0
STYLE
  2
KICADI
  70
0
  40
0
  41
1
  42
1
  50
15
  71
0
  3
isocp.shx
  0
STYLE
  2
KICADBI
  70
0
  40
0
  41
1
  42
1
  50
15
  71
0
  3
isocp.shx
  0
ENDTAB
  0
TABLE
  2
LAYER
  70
1
  0
LAYER
  2
BLACK
  70
0
  62
7
  6
CONTINUOUS
  0
ENDTAB
  0
ENDSEC
  0
SECTION
  2
ENTITIES
0
LINE
8
BLACK
6
CONTINUOUS
10
313.024
20
7.208
11
329.024
21
7.208
0
LINE
8
BLACK
6
CONTINUOUS
10
329.024
20
4.158
11
313.024
21
4.158
0
LINE
8
BLACK
6
CONTINUOUS
10
329.024
20
-33.942
11
313.024
21
-33.942
0
LINE
8
BLACK
6
CONTINUOUS
10
313.024
20
-30.892
11
329.024
21
-30.892
0
LINE
8
BLACK
6
CONTINUOUS
10
313.024
20
-49.942
11
329.024
21
-49.942
0
LINE
8
BLACK
6
CONTINUOUS
10
329.024
20
-52.992
11
313.024
21
-52.992
0
LINE
8
BLACK
6
CONTINUOUS
10
348.074
20
4.158
11
332.074
21
4.158
0
LINE
8
BLACK
6
CONTINUOUS
10
332.074
20
7.208
11
348.074
21
7.208
0
LINE
8
BLACK
6
CONTINUOUS
10
351.124
20
7.208
11
367.124
21
7.208
0
LINE
8
BLACK
6
CONTINUOUS
10
367.124
20
4.158
11
351.124
21
4.158
0
LINE
8
BLACK
6
CONTINUOUS
10
386.174
20
4.158
11
370.174
21
4.158
0
LINE
8
BLACK
6
CONTINUOUS
10
370.174
20
7.208
11
386.174
21
7.208
0
LINE
8
BLACK
6
CONTINUOUS
10
389.224
20
7.208
11
405.224
21
7.208
0
LINE
8
BLACK
6
CONTINUOUS
10
405.224
20
4.158
11
389.224
21
4.158
0
LINE
8
BLACK
6
CONTINUOUS
10
424.274
20
4.158
11
408.274
21
4.158
0
LINE
8
BLACK
6
CONTINUOUS
10
408.274
20
7.208
11
424.274
21
7.208
0
LINE
8
BLACK
6
CONTINUOUS
10
427.324
20
7.208
11
443.324
21
7.208
0
LINE
8
BLACK
6
CONTINUOUS
10
443.324
20
4.158
11
427.324
21
4.158
0
LINE
8
BLACK
6
CONTINUOUS
10
446.374
20
7.208
11
462.374
21
7.208
0
LINE
8
BLACK
6
CONTINUOUS
10
462.374
20
4.158
11
446.374
21
4.158
0
LINE
8
BLACK
6
CONTINUOUS
10
462.374
20
-33.942
11
446.374
21
-33.942
0
LINE
8
BLACK
6
CONTINUOUS
10
446.374
20
-30.892
11
462.374
21
-30.892
0
LINE
8
BLACK
6
CONTINUOUS
10
427.324
20
-30.892
11
443.324
21
-30.892
0
LINE
8
BLACK
6
CONTINUOUS
10
443.324
20
-33.942
11
427.324
21
-33.942
0
LINE
8
BLACK
6
CONTINUOUS
10
408.274
20
-30.892
11
424.274
21
-30.892
0
LINE
8
BLACK
6
CONTINUOUS
10
424.274
20
-33.942
11
408.274
21
-33.942
0
LINE
8
BLACK
6
CONTINUOUS
10
405.224
20
-33.942
11
389.224
21
-33.942
0
LINE
8
BLACK
6
CONTINUOUS
10
389.224
20
-30.892
11
405.224
21
-30.892
0
LINE
8
BLACK
6
CONTINUOUS
10
370.174
20
-30.892
11
386.174
21
-30.892
0
LINE
8
BLACK
6
CONTINUOUS
10
386.174
20
-33.942
11
370.174
21
-33.942
0
LINE
8
BLACK
6
CONTINUOUS
10
370.174
20
-49.942
11
386.174
21
-49.942
0
LINE
8
BLACK
6
CONTINUOUS
10
386.174
20
-52.992
11
370.174
21
-52.992
0
LINE
8
BLACK
6
CONTINUOUS
10
351.124
20
-30.892
11
367.124
21
-30.892
0
LINE
8
BLACK
6
CONTINUOUS
10
367.124
20
-33.942
11
351.124
21
-33.942
0
LINE
8
BLACK
6
CONTINUOUS
10
367.124
20
-52.992
11
351.124
21
-52.992
0
LINE
8
BLACK
6
CONTINUOUS
10
351.124
20
-49.942
11
367.124
21
-49.942
0
LINE
8
BLACK
6
CONTINUOUS
10
348.074
20
-33.942
11
332.074
21
-33.942
0
LINE
8
BLACK
6
CONTINUOUS
10
332.074
20
-30.892
11
348.074
21
-30.892
0
LINE
8
BLACK
6
CONTINUOUS
10
332.074
20
-49.942
11
348.074
21
-49.942
0
LINE
8
BLACK
6
CONTINUOUS
10
348.074
20
-52.992
11
332.074
21
-52.992
0
LINE
8
BLACK
6
CONTINUOUS
10
465.424
20
-30.892
11
481.424
21
-30.892
0
LINE
8
BLACK
6
CONTINUOUS
10
481.424
20
-33.942
11
465.424
21
-33.942
0
LINE
8
BLACK
6
CONTINUOUS
10
465.424
20
-49.942
11
481.424
21
-49.942
0
LINE
8
BLACK
6
CONTINUOUS
10
481.424
20
-52.992
11
465.424
21
-52.992
0
LINE
8
BLACK
6
CONTINUOUS
10
519.524
20
-52.992
11
503.524
21
-52.992
0
LINE
8
BLACK
6
CONTINUOUS
10
503.524
20
-30.892
11
519.524
21
-30.892
0
LINE
8
BLACK
6
CONTINUOUS
10
519.524
20
-33.942
11
503.524
21
-33.942
0
LINE
8
BLACK
6
CONTINUOUS
10
503.524
20
-49.942
11
519.524
21
-49.942
0
LINE
8
BLACK
6
CONTINUOUS
10
500.474
20
-52.992
11
484.474
21
-52.992
0
LINE
8
BLACK
6
CONTINUOUS
10
484.474
20
-30.892
11
500.474
21
-30.892
0
LINE
8
BLACK
6
CONTINUOUS
10
500.474
20
-33.942
11
484.474
21
-33.942
0
LINE
8
BLACK
6
CONTINUOUS
10
484.474
20
-49.942
11
500.474
21
-49.942
0
LINE
8
BLACK
6
CONTINUOUS
10
538.574
20
-52.992
11
522.574
21
-52.992
0
LINE
8
BLACK
6
CONTINUOUS
10
522.574
20
-49.942
11
538.574
21
-49.942
0
LINE
8
BLACK
6
CONTINUOUS
10
538.574
20
-33.942
11
522.574
21
-33.942
0
LINE
8
BLACK
6
CONTINUOUS
10
522.574
20
-30.892
11
538.574
21
-30.892
0
LINE
8
BLACK
6
CONTINUOUS
10
519.524
20
4.158
11
503.524
21
4.158
0
LINE
8
BLACK
6
CONTINUOUS
10
503.524
20
7.208
11
519.524
21
7.208
0
LINE
8
BLACK
6
CONTINUOUS
10
484.474
20
7.208
11
500.474
21
7.208
0
LINE
8
BLACK
6
CONTINUOUS
10
500.474
20
4.158
11
484.474
21
4.158
0
LINE
8
BLACK
6
CONTINUOUS
10
481.424
20
4.158
11
465.424
21
4.158
0
LINE
8
BLACK
6
CONTINUOUS
10
465.424
20
7.208
11
481.424
21
7.208
0
LINE
8
BLACK
6
CONTINUOUS
10
484.474
20
23.208
11
484.474
21
7.208
0
LINE
8
BLACK
6
CONTINUOUS
10
484.474
20
4.158
11
484.474
21
-11.842
0
LINE
8
BLACK
6
CONTINUOUS
10
484.474
20
23.208
11
485.33
21
25.9236
0
LINE
8
BLACK
6
CONTINUOUS
10
313.024
20
-11.842
11
329.024
21
-11.842
0
LINE
8
BLACK
6
CONTINUOUS
10
329.024
20
-14.892
11
313.024
21
-14.892
0
LINE
8
BLACK
6
CONTINUOUS
10
348.074
20
-14.892
11
332.074
21
-14.892
0
LINE
8
BLACK
6
CONTINUOUS
10
332.074
20
-11.842
11
348.074
21
-11.842
0
LINE
8
BLACK
6
CONTINUOUS
10
367.124
20
-14.892
11
351.124
21
-14.892
0
LINE
8
BLACK
6
CONTINUOUS
10
351.124
20
-11.842
11
367.124
21
-11.842
0
LINE
8
BLACK
6
CONTINUOUS
10
386.174
20
-14.892
11
370.174
21
-14.892
0
LINE
8
BLACK
6
CONTINUOUS
10
370.174
20
-11.842
11
386.174
21
-11.842
0
LINE
8
BLACK
6
CONTINUOUS
10
481.424
20
-14.892
11
465.424
21
-14.892
0
LINE
8
BLACK
6
CONTINUOUS
10
465.424
20
-11.842
11
481.424
21
-11.842
0
LINE
8
BLACK
6
CONTINUOUS
10
484.474
20
-11.842
11
500.474
21
-11.842
0
LINE
8
BLACK
6
CONTINUOUS
10
500.474
20
-14.892
11
484.474
21
-14.892
0
LINE
8
BLACK
6
CONTINUOUS
10
519.524
20
-14.892
11
503.524
21
-14.892
0
LINE
8
BLACK
6
CONTINUOUS
10
503.524
20
-11.842
11
519.524
21
-11.842
0
LINE
8
BLACK
6
CONTINUOUS
10
538.574
20
-14.892
11
522.574
21
-14.892
0
LINE
8
BLACK
6
CONTINUOUS
10
522.574
20
-11.842
11
538.574
21
-11.842
0
LINE
8
BLACK
6
CONTINUOUS
10
446.374
20
-11.842
11
462.374
21
-11.842
0
LINE
8
BLACK
6
CONTINUOUS
10
462.374
20
-14.892
11
446.374
21
-14.892
0
LINE
8
BLACK
6
CONTINUOUS
10
443.324
20
-14.892
11
427.324
21
-14.892
0
LINE
8
BLACK
6
CONTINUOUS
10
427.324
20
-11.842
11
443.324
21
-11.842
0
LINE
8
BLACK
6
CONTINUOUS
10
424.274
20
-14.892
11
408.274
21
-14.892
0
LINE
8
BLACK
6
CONTINUOUS
10
408.274
20
-11.842
11
424.274
21
-11.842
0
LINE
8
BLACK
6
CONTINUOUS
10
389.224
20
-11.842
11
405.224
21
-11.842
0
LINE
8
BLACK
6
CONTINUOUS
10
405.224
20
-14.892
11
389.224
21
-14.892
0
LINE
8
BLACK
6
CONTINUOUS
10
313.024
20
4.158
11
310.309
21
3.30175
0
LINE
8
BLACK
6
CONTINUOUS
10
313.024
20
7.208
11
310.309
21
8.06425
0
LINE
8
BLACK
6
CONTINUOUS
10
389.224
20
-52.992
11
389.224
21
-49.942
0
LINE
8
BLACK
6
CONTINUOUS
10
405.224
20
-49.942
11
408.274
21
-49.942
0
LINE
8
BLACK
6
CONTINUOUS
10
424.274
20
-49.942
11
427.324
21
-49.942
0
LINE
8
BLACK
6
CONTINUOUS
10
443.324
20
-49.942
11
446.374
21
-49.942
0
LINE
8
BLACK
6
CONTINUOUS
10
462.374
20
-52.992
11
462.374
21
-49.942
0
LINE
8
BLACK
6
CONTINUOUS
10
329.024
20
-68.992
11
329.024
21
-52.992
0
LINE
8
BLACK
6
CONTINUOUS
10
332.074
20
-52.992
11
332.074
21
-68.992
0
LINE
8
BLACK
6
CONTINUOUS
10
370.174
20
-52.992
11
370.174
21
-68.992
0
LINE
8
BLACK
6
CONTINUOUS
10
367.124
20
-68.992
11
367.124
21
-52.992
0
LINE
8
BLACK
6
CONTINUOUS
10
370.174
20
-33.942
11
370.174
21
-49.942
0
LINE
8
BLACK
6
CONTINUOUS
10
367.124
20
-49.942
11
367.124
21
-33.942
0
LINE
8
BLACK
6
CONTINUOUS
10
332.074
20
-33.942
11
332.074
21
-49.942
0
LINE
8
BLACK
6
CONTINUOUS
10
329.024
20
-49.942
11
329.024
21
-33.942
0
LINE
8
BLACK
6
CONTINUOUS
10
332.074
20
4.158
11
332.074
21
-11.842
0
LINE
8
BLACK
6
CONTINUOUS
10
329.024
20
-11.842
11
329.024
21
4.158
0
LINE
8
BLACK
6
CONTINUOUS
10
332.074
20
-14.892
11
332.074
21
-30.892
0
LINE
8
BLACK
6
CONTINUOUS
10
329.024
20
-30.892
11
329.024
21
-14.892
0
LINE
8
BLACK
6
CONTINUOUS
10
370.174
20
-14.892
11
370.174
21
-30.892
0
LINE
8
BLACK
6
CONTINUOUS
10
370.174
20
4.158
11
370.174
21
-11.842
0
LINE
8
BLACK
6
CONTINUOUS
10
367.124
20
-11.842
11
367.124
21
4.158
0
LINE
8
BLACK
6
CONTINUOUS
10
367.124
20
-30.892
11
367.124
21
-14.892
0
ARC
8
BLACK
10
425.799
20
25.9236
40
2.38645
50
-50.2809
51
-3.12251e-06
0
ARC
8
BLACK
10
425.799
20
25.9236
40
2.38645
50
180
51
230.281
0
LINE
8
BLACK
6
CONTINUOUS
10
428.186
20
25.9236
11
442.468
21
25.9236
0
LINE
8
BLACK
6
CONTINUOUS
10
409.13
20
25.9236
11
423.413
21
25.9236
0
LINE
8
BLACK
6
CONTINUOUS
10
424.274
20
7.208
11
424.274
21
24.088
0
LINE
8
BLACK
6
CONTINUOUS
10
351.124
20
-52.992
11
351.124
21
-68.992
0
LINE
8
BLACK
6
CONTINUOUS
10
311.499
20
-75.2795
11
540.099
21
-75.2795
0
LINE
8
BLACK
6
CONTINUOUS
10
386.174
20
-68.992
11
386.174
21
-52.992
0
LINE
8
BLACK
6
CONTINUOUS
10
351.124
20
-33.942
11
351.124
21
-49.942
0
LINE
8
BLACK
6
CONTINUOUS
10
348.074
20
-49.942
11
348.074
21
-33.942
0
LINE
8
BLACK
6
CONTINUOUS
10
386.174
20
-30.892
11
386.174
21
-14.892
0
LINE
8
BLACK
6
CONTINUOUS
10
386.174
20
-11.842
11
386.174
21
4.158
0
LINE
8
BLACK
6
CONTINUOUS
10
348.074
20
-68.992
11
348.074
21
-52.992
0
LINE
8
BLACK
6
CONTINUOUS
10
370.174
20
23.208
11
370.174
21
7.208
0
LINE
8
BLACK
6
CONTINUOUS
10
348.074
20
-11.842
11
348.074
21
4.158
0
LINE
8
BLACK
6
CONTINUOUS
10
386.174
20
7.208
11
386.174
21
23.208
0
LINE
8
BLACK
6
CONTINUOUS
10
332.074
20
23.208
11
332.074
21
7.208
0
LINE
8
BLACK
6
CONTINUOUS
10
367.124
20
7.208
11
367.124
21
23.208
0
LINE
8
BLACK
6
CONTINUOUS
10
348.074
20
7.208
11
348.074
21
23.208
0
LINE
8
BLACK
6
CONTINUOUS
10
351.124
20
4.158
11
351.124
21
-11.842
0
LINE
8
BLACK
6
CONTINUOUS
10
351.124
20
23.208
11
351.124
21
7.208
0
LINE
8
BLACK
6
CONTINUOUS
10
351.124
20
-14.892
11
351.124
21
-30.892
0
LINE
8
BLACK
6
CONTINUOUS
10
329.024
20
7.208
11
329.024
21
23.208
0
LINE
8
BLACK
6
CONTINUOUS
10
348.074
20
-30.892
11
348.074
21
-14.892
0
LINE
8
BLACK
6
CONTINUOUS
10
500.474
20
-11.842
11
500.474
21
4.158
0
LINE
8
BLACK
6
CONTINUOUS
10
481.424
20
-11.842
11
481.424
21
4.158
0
LINE
8
BLACK
6
CONTINUOUS
10
519.524
20
-30.892
11
519.524
21
-14.892
0
LINE
8
BLACK
6
CONTINUOUS
10
427.324
20
-33.942
11
427.324
21
-49.942
0
LINE
8
BLACK
6
CONTINUOUS
10
481.424
20
-30.892
11
481.424
21
-14.892
0
LINE
8
BLACK
6
CONTINUOUS
10
484.474
20
-14.892
11
484.474
21
-30.892
0
LINE
8
BLACK
6
CONTINUOUS
10
500.474
20
7.208
11
500.474
21
23.208
0
LINE
8
BLACK
6
CONTINUOUS
10
503.524
20
4.158
11
503.524
21
-11.842
0
LINE
8
BLACK
6
CONTINUOUS
10
481.424
20
7.208
11
481.424
21
23.208
0
LINE
8
BLACK
6
CONTINUOUS
10
465.424
20
4.158
11
465.424
21
-11.842
0
LINE
8
BLACK
6
CONTINUOUS
10
522.574
20
4.158
11
522.574
21
-11.842
0
LINE
8
BLACK
6
CONTINUOUS
10
465.424
20
-33.942
11
465.424
21
-49.942
0
LINE
8
BLACK
6
CONTINUOUS
10
522.574
20
-14.892
11
522.574
21
-30.892
0
LINE
8
BLACK
6
CONTINUOUS
10
481.424
20
-49.942
11
481.424
21
-33.942
0
LINE
8
BLACK
6
CONTINUOUS
10
519.524
20
-11.842
11
519.524
21
4.158
0
LINE
8
BLACK
6
CONTINUOUS
10
503.524
20
-14.892
11
503.524
21
-30.892
0
LINE
8
BLACK
6
CONTINUOUS
10
500.474
20
-30.892
11
500.474
21
-14.892
0
LINE
8
BLACK
6
CONTINUOUS
10
522.574
20
-33.942
11
522.574
21
-49.942
0
LINE
8
BLACK
6
CONTINUOUS
10
465.424
20
-14.892
11
465.424
21
-30.892
0
LINE
8
BLACK
6
CONTINUOUS
10
443.324
20
-49.942
11
443.324
21
-33.942
0
LINE
8
BLACK
6
CONTINUOUS
10
503.524
20
23.208
11
503.524
21
7.208
0
LINE
8
BLACK
6
CONTINUOUS
10
465.424
20
23.208
11
465.424
21
7.208
0
LINE
8
BLACK
6
CONTINUOUS
10
389.224
20
-33.942
11
389.224
21
-49.942
0
LINE
8
BLACK
6
CONTINUOUS
10
443.324
20
7.208
11
443.324
21
23.208
0
LINE
8
BLACK
6
CONTINUOUS
10
446.374
20
-33.942
11
446.374
21
-49.942
0
LINE
8
BLACK
6
CONTINUOUS
10
389.224
20
-14.892
11
389.224
21
-30.892
0
LINE
8
BLACK
6
CONTINUOUS
10
424.274
20
-30.892
11
424.274
21
-14.892
0
LINE
8
BLACK
6
CONTINUOUS
10
424.274
20
-11.842
11
424.274
21
4.158
0
LINE
8
BLACK
6
CONTINUOUS
10
405.224
20
7.208
11
405.224
21
23.208
0
LINE
8
BLACK
6
CONTINUOUS
10
462.374
20
-49.942
11
462.374
21
-33.942
0
LINE
8
BLACK
6
CONTINUOUS
10
408.274
20
23.208
11
408.274
21
7.208
0
LINE
8
BLACK
6
CONTINUOUS
10
405.224
20
-49.942
11
405.224
21
-33.942
0
LINE
8
BLACK
6
CONTINUOUS
10
443.324
20
-11.842
11
443.324
21
4.158
0
LINE
8
BLACK
6
CONTINUOUS
10
405.224
20
-30.892
11
405.224
21
-14.892
0
LINE
8
BLACK
6
CONTINUOUS
10
389.224
20
4.158
11
389.224
21
-11.842
0
LINE
8
BLACK
6
CONTINUOUS
10
446.374
20
4.158
11
446.374
21
-11.842
0
LINE
8
BLACK
6
CONTINUOUS
10
443.324
20
-30.892
11
443.324
21
-14.892
0
LINE
8
BLACK
6
CONTINUOUS
10
408.274
20
-14.892
11
408.274
21
-30.892
0
LINE
8
BLACK
6
CONTINUOUS
10
389.224
20
23.208
11
389.224
21
7.208
0
LINE
8
BLACK
6
CONTINUOUS
10
427.324
20
-14.892
11
427.324
21
-30.892
0
LINE
8
BLACK
6
CONTINUOUS
10
446.374
20
-14.892
11
446.374
21
-30.892
0
LINE
8
BLACK
6
CONTINUOUS
10
408.274
20
-33.942
11
408.274
21
-49.942
0
LINE
8
BLACK
6
CONTINUOUS
10
462.374
20
-30.892
11
462.374
21
-14.892
0
LINE
8
BLACK
6
CONTINUOUS
10
446.374
20
23.208
11
446.374
21
7.208
0
LINE
8
BLACK
6
CONTINUOUS
10
408.274
20
4.158
11
408.274
21
-11.842
0
LINE
8
BLACK
6
CONTINUOUS
10
462.374
20
7.208
11
462.374
21
23.208
0
LINE
8
BLACK
6
CONTINUOUS
10
462.374
20
-11.842
11
462.374
21
4.158
0
LINE
8
BLACK
6
CONTINUOUS
10
405.224
20
-11.842
11
405.224
21
4.158
0
LINE
8
BLACK
6
CONTINUOUS
10
427.324
20
4.158
11
427.324
21
-11.842
0
LINE
8
BLACK
6
CONTINUOUS
10
424.274
20
-49.942
11
424.274
21
-33.942
0
LINE
8
BLACK
6
CONTINUOUS
10
519.524
20
-49.942
11
519.524
21
-33.942
0
LINE
8
BLACK
6
CONTINUOUS
10
503.524
20
-33.942
11
503.524
21
-49.942
0
LINE
8
BLACK
6
CONTINUOUS
10
500.474
20
-49.942
11
500.474
21
-33.942
0
LINE
8
BLACK
6
CONTINUOUS
10
484.474
20
-33.942
11
484.474
21
-49.942
0
LINE
8
BLACK
6
CONTINUOUS
10
424.699
20
-71.7076
11
422.227
21
-71.7076
0
LINE
8
BLACK
6
CONTINUOUS
10
429.371
20
-71.7076
11
426.899
21
-71.7076
0
ARC
8
BLACK
10
425.799
20
-71.7076
40
1.1
50
180
51
360
0
LINE
8
BLACK
6
CONTINUOUS
10
386.174
20
-49.942
11
386.174
21
-33.942
0
LINE
8
BLACK
6
CONTINUOUS
10
462.374
20
-68.992
11
462.374
21
-52.992
0
LINE
8
BLACK
6
CONTINUOUS
10
389.224
20
-52.992
11
389.224
21
-68.992
0
ARC
8
BLACK
10
530.574
20
15.208
40
4.7625
50
180
51
270
0
LINE
8
BLACK
6
CONTINUOUS
10
306.737
20
-70.517
11
306.737
21
24.733
0
ARC
8
BLACK
10
540.099
20
5.683
40
4.7625
50
-0
51
90
0
LINE
8
BLACK
6
CONTINUOUS
10
311.499
20
29.4955
11
521.049
21
29.4955
0
ARC
8
BLACK
10
540.099
20
-70.517
40
4.7625
50
-90
51
-0
0
LINE
8
BLACK
6
CONTINUOUS
10
544.862
20
5.683
11
544.862
21
-70.517
0
LINE
8
BLACK
6
CONTINUOUS
10
525.812
20
24.733
11
525.812
21
15.208
0
ARC
8
BLACK
10
311.499
20
-70.517
40
4.7625
50
180
51
270
0
ARC
8
BLACK
10
521.049
20
24.733
40
4.7625
50
-0
51
90
0
LINE
8
BLACK
6
CONTINUOUS
10
530.574
20
10.4455
11
540.099
21
10.4455
0
ARC
8
BLACK
10
311.499
20
24.733
40
4.7625
50
90
51
180
0
LINE
8
BLACK
6
CONTINUOUS
10
519.524
20
7.208
11
522.24
21
9.25488
0
LINE
8
BLACK
6
CONTINUOUS
10
370.174
20
23.208
11
371.03
21
25.9236
0
LINE
8
BLACK
6
CONTINUOUS
10
481.424
20
23.208
11
480.568
21
25.9236
0
LINE
8
BLACK
6
CONTINUOUS
10
443.324
20
23.208
11
442.468
21
25.9236
0
LINE
8
BLACK
6
CONTINUOUS
10
386.174
20
23.208
11
385.318
21
25.9236
0
LINE
8
BLACK
6
CONTINUOUS
10
367.124
20
23.208
11
366.268
21
25.9236
0
LINE
8
BLACK
6
CONTINUOUS
10
500.474
20
23.208
11
499.618
21
25.9236
0
LINE
8
BLACK
6
CONTINUOUS
10
389.224
20
23.208
11
390.08
21
25.9236
0
LINE
8
BLACK
6
CONTINUOUS
10
328.168
20
25.9236
11
313.88
21
25.9236
0
LINE
8
BLACK
6
CONTINUOUS
10
480.568
20
25.9236
11
466.28
21
25.9236
0
LINE
8
BLACK
6
CONTINUOUS
10
310.309
20
8.06425
11
310.309
21
22.3517
0
LINE
8
BLACK
6
CONTINUOUS
10
351.124
20
23.208
11
351.981
21
25.9236
0
LINE
8
BLACK
6
CONTINUOUS
10
348.074
20
23.208
11
347.218
21
25.9236
0
LINE
8
BLACK
6
CONTINUOUS
10
462.374
20
23.208
11
461.518
21
25.9236
0
LINE
8
BLACK
6
CONTINUOUS
10
332.074
20
23.208
11
332.93
21
25.9236
0
LINE
8
BLACK
6
CONTINUOUS
10
522.24
20
22.3517
11
522.24
21
9.25488
0
LINE
8
BLACK
6
CONTINUOUS
10
446.374
20
23.208
11
447.231
21
25.9236
0
LINE
8
BLACK
6
CONTINUOUS
10
405.224
20
23.208
11
404.368
21
25.9236
0
LINE
8
BLACK
6
CONTINUOUS
10
366.268
20
25.9236
11
351.981
21
25.9236
0
LINE
8
BLACK
6
CONTINUOUS
10
329.024
20
23.208
11
328.168
21
25.9236
0
LINE
8
BLACK
6
CONTINUOUS
10
347.218
20
25.9236
11
332.93
21
25.9236
0
LINE
8
BLACK
6
CONTINUOUS
10
522.574
20
4.158
11
524.621
21
6.87362
0
LINE
8
BLACK
6
CONTINUOUS
10
503.524
20
23.208
11
504.38
21
25.9236
0
LINE
8
BLACK
6
CONTINUOUS
10
499.618
20
25.9236
11
485.33
21
25.9236
0
LINE
8
BLACK
6
CONTINUOUS
10
518.668
20
25.9236
11
504.38
21
25.9236
0
LINE
8
BLACK
6
CONTINUOUS
10
465.424
20
23.208
11
466.28
21
25.9236
0
LINE
8
BLACK
6
CONTINUOUS
10
404.368
20
25.9236
11
390.08
21
25.9236
0
LINE
8
BLACK
6
CONTINUOUS
10
385.318
20
25.9236
11
371.03
21
25.9236
0
LINE
8
BLACK
6
CONTINUOUS
10
461.518
20
25.9236
11
447.231
21
25.9236
0
LINE
8
BLACK
6
CONTINUOUS
10
408.274
20
23.208
11
409.13
21
25.9236
0
LINE
8
BLACK
6
CONTINUOUS
10
537.718
20
6.87362
11
524.621
21
6.87362
0
ARC
8
BLACK
10
310.309
20
-71.7076
40
3.57187
50
-0
51
90
0
LINE
8
BLACK
6
CONTINUOUS
10
310.309
20
-68.1358
11
310.309
21
-53.8483
0
CIRCLE
8
BLACK
10
310.309
20
25.9236
40
1.1
0
LINE
8
BLACK
6
CONTINUOUS
10
313.024
20
-33.942
11
310.309
21
-34.7982
0
LINE
8
BLACK
6
CONTINUOUS
10
385.318
20
-71.7076
11
386.174
21
-68.992
0
CIRCLE
8
BLACK
10
522.24
20
25.9236
40
1.1
0
LINE
8
BLACK
6
CONTINUOUS
10
367.124
20
-68.992
11
366.268
21
-71.7076
0
LINE
8
BLACK
6
CONTINUOUS
10
371.03
20
-71.7076
11
385.318
21
-71.7076
0
LINE
8
BLACK
6
CONTINUOUS
10
328.168
20
-71.7076
11
313.88
21
-71.7076
0
LINE
8
BLACK
6
CONTINUOUS
10
310.309
20
-49.0857
11
310.309
21
-34.7982
0
LINE
8
BLACK
6
CONTINUOUS
10
348.074
20
-68.992
11
347.218
21
-71.7076
0
LINE
8
BLACK
6
CONTINUOUS
10
332.074
20
-68.992
11
332.93
21
-71.7076
0
CIRCLE
8
BLACK
10
463.899
20
-13.367
40
1.1
0
CIRCLE
8
BLACK
10
541.29
20
6.87362
40
1.1
0
LINE
8
BLACK
6
CONTINUOUS
10
500.474
20
-68.992
11
500.474
21
-52.992
0
LINE
8
BLACK
6
CONTINUOUS
10
484.474
20
-52.992
11
484.474
21
-68.992
0
LINE
8
BLACK
6
CONTINUOUS
10
366.268
20
-71.7076
11
351.981
21
-71.7076
0
LINE
8
BLACK
6
CONTINUOUS
10
522.574
20
-52.992
11
522.574
21
-68.992
0
LINE
8
BLACK
6
CONTINUOUS
10
519.524
20
-68.992
11
519.524
21
-52.992
0
LINE
8
BLACK
6
CONTINUOUS
10
503.524
20
-52.992
11
503.524
21
-68.992
0
LINE
8
BLACK
6
CONTINUOUS
10
310.309
20
-10.9857
11
310.309
21
3.30175
0
LINE
8
BLACK
6
CONTINUOUS
10
313.024
20
-11.842
11
310.309
21
-10.9857
0
LINE
8
BLACK
6
CONTINUOUS
10
465.424
20
-52.992
11
465.424
21
-68.992
0
LINE
8
BLACK
6
CONTINUOUS
10
313.024
20
-30.892
11
310.309
21
-30.0358
0
LINE
8
BLACK
6
CONTINUOUS
10
313.024
20
-49.942
11
310.309
21
-49.0857
0
LINE
8
BLACK
6
CONTINUOUS
10
351.124
20
-68.992
11
351.981
21
-71.7076
0
CIRCLE
8
BLACK
10
541.29
20
-71.7076
40
1.1
0
LINE
8
BLACK
6
CONTINUOUS
10
313.024
20
-52.992
11
310.309
21
-53.8483
0
LINE
8
BLACK
6
CONTINUOUS
10
329.024
20
-68.992
11
328.168
21
-71.7076
0
LINE
8
BLACK
6
CONTINUOUS
10
370.174
20
-68.992
11
371.03
21
-71.7076
0
CIRCLE
8
BLACK
10
310.309
20
-71.7076
40
1.1
0
LINE
8
BLACK
6
CONTINUOUS
10
332.93
20
-71.7076
11
347.218
21
-71.7076
0
CIRCLE
8
BLACK
10
387.699
20
-13.367
40
1.1
0
CIRCLE
8
BLACK
10
425.799
20
25.9236
40
1.1
0
LINE
8
BLACK
6
CONTINUOUS
10
481.424
20
-68.992
11
481.424
21
-52.992
0
LINE
8
BLACK
6
CONTINUOUS
10
310.309
20
-30.0358
11
310.309
21
-15.7482
0
LINE
8
BLACK
6
CONTINUOUS
10
313.024
20
-14.892
11
310.309
21
-15.7482
0
LINE
8
BLACK
6
CONTINUOUS
10
427.324
20
7.208
11
427.324
21
24.088
0
LINE
8
BLACK
6
CONTINUOUS
10
480.568
20
-71.7076
11
481.424
21
-68.992
0
LINE
8
BLACK
6
CONTINUOUS
10
538.574
20
-52.992
11
541.29
21
-53.8483
0
LINE
8
BLACK
6
CONTINUOUS
10
538.574
20
-11.842
11
541.29
21
-10.9857
0
LINE
8
BLACK
6
CONTINUOUS
10
504.38
20
-71.7076
11
518.668
21
-71.7076
0
LINE
8
BLACK
6
CONTINUOUS
10
390.08
20
-71.7076
11
422.227
21
-71.7076
0
LINE
8
BLACK
6
CONTINUOUS
10
538.574
20
-14.892
11
541.29
21
-15.7482
0
ARC
8
BLACK
10
541.29
20
6.87362
40
3.57187
50
180
51
270
0
LINE
8
BLACK
6
CONTINUOUS
10
485.33
20
-71.7076
11
499.618
21
-71.7076
0
LINE
8
BLACK
6
CONTINUOUS
10
541.29
20
-30.0358
11
538.574
21
-30.892
0
LINE
8
BLACK
6
CONTINUOUS
10
541.29
20
-53.8483
11
541.29
21
-68.1358
0
LINE
8
BLACK
6
CONTINUOUS
10
462.374
20
-68.992
11
461.518
21
-71.7076
0
LINE
8
BLACK
6
CONTINUOUS
10
522.574
20
-68.992
11
523.43
21
-71.7076
0
LINE
8
BLACK
6
CONTINUOUS
10
523.43
20
-71.7076
11
537.718
21
-71.7076
0
LINE
8
BLACK
6
CONTINUOUS
10
541.29
20
-49.0857
11
538.574
21
-49.942
0
LINE
8
BLACK
6
CONTINUOUS
10
390.08
20
-71.7076
11
389.224
21
-68.992
0
LINE
8
BLACK
6
CONTINUOUS
10
518.668
20
-71.7076
11
519.524
21
-68.992
0
LINE
8
BLACK
6
CONTINUOUS
10
503.524
20
-68.992
11
504.38
21
-71.7076
0
LINE
8
BLACK
6
CONTINUOUS
10
499.618
20
-71.7076
11
500.474
21
-68.992
0
LINE
8
BLACK
6
CONTINUOUS
10
541.29
20
-34.7982
11
541.29
21
-49.0857
0
LINE
8
BLACK
6
CONTINUOUS
10
541.29
20
-10.9857
11
541.29
21
3.30175
0
ARC
8
BLACK
10
522.24
20
25.9236
40
3.57187
50
180
51
270
0
LINE
8
BLACK
6
CONTINUOUS
10
538.574
20
-33.942
11
541.29
21
-34.7982
0
LINE
8
BLACK
6
CONTINUOUS
10
484.474
20
-68.992
11
485.33
21
-71.7076
0
ARC
8
BLACK
10
310.309
20
25.9236
40
3.57187
50
-90
51
-0
0
ARC
8
BLACK
10
541.29
20
-71.7076
40
3.57187
50
90
51
180
0
LINE
8
BLACK
6
CONTINUOUS
10
465.424
20
-68.992
11
466.28
21
-71.7076
0
LINE
8
BLACK
6
CONTINUOUS
10
541.29
20
-15.7482
11
541.29
21
-30.0358
0
LINE
8
BLACK
6
CONTINUOUS
10
466.28
20
-71.7076
11
480.568
21
-71.7076
0
LINE
8
BLACK
6
CONTINUOUS
10
461.518
20
-71.7076
11
429.371
21
-71.7076
  0
ENDSEC
  0
EOF
