  0
SECTION
  2
HEADER
  9
$ANGBASE
  50
0.0
  9
$ANGDIR
  70
1
  9
$MEASUREMENT
  70
1
  0
ENDSEC
  0
SECTION
  2
TABLES
  0
TABLE
  2
LTYPE
  70
4
  0
LTYPE
  5
40F
  2
CONTINUOUS
  70
0
  3
Solid line
  72
65
  73
0
  40
0.0
  0
LTYPE
  5
410
  2
DASHDOT
 70
0
  3
Dash Dot ____ _ ____ _
 72
65
 73
4
 40
2.0
 49
1.25
 49
-0.25
 49
0.25
 49
-0.25
  0
LTYPE
  5
411
  2
DASHED
 70
0
  3
Dashed __ __ __ __ __
 72
65
 73
2
 40
0.75
 49
0.5
 49
-0.25
  0
LTYPE
  5
43B
  2
DOTTED
 70
0
  3
Dotted .  .  .  .
 72
65
 73
2
 40
0.2
 49
0.0
 49
-0.2
  0
ENDTAB
  0
TABLE
  2
STYLE
  70
4
  0
STYLE
  2
KICAD
  70
0
  40
0
  41
1
  42
1
  50
0
  71
0
  3
isocp.shx
  0
STYLE
  2
KICADB
  70
0
  40
0
  41
1
  42
1
  50
0
  71
0
  3
isocp.shx
  0
STYLE
  2
KICADI
  70
0
  40
0
  41
1
  42
1
  50
15
  71
0
  3
isocp.shx
  0
STYLE
  2
KICADBI
  70
0
  40
0
  41
1
  42
1
  50
15
  71
0
  3
isocp.shx
  0
ENDTAB
  0
TABLE
  2
LAYER
  70
1
  0
LAYER
  2
BLACK
  70
0
  62
7
  6
CONTINUOUS
  0
ENDTAB
  0
ENDSEC
  0
SECTION
  2
ENTITIES
0
LINE
8
BLACK
6
CONTINUOUS
10
519.579
20
-111.808
11
428.459
21
-111.808
0
LINE
8
BLACK
6
CONTINUOUS
10
525.812
20
-101.092
11
525.81
21
-109.426
0
ARC
8
BLACK
10
522.24
20
-109.426
40
3.57061
50
-138.172
51
-1.22364e-06
0
LINE
8
BLACK
6
CONTINUOUS
10
423.139
20
-111.808
11
312.97
21
-111.809
0
LINE
8
BLACK
6
CONTINUOUS
10
538.909
20
-98.7107
11
528.193
21
-98.7107
0
LINE
8
BLACK
6
CONTINUOUS
10
541.29
20
-111.808
11
541.29
21
-101.092
0
LINE
8
BLACK
6
CONTINUOUS
10
542.481
20
-117.761
11
542.481
21
-112.998
0
LINE
8
BLACK
6
CONTINUOUS
10
541.29
20
-121.333
11
541.29
21
-118.951
0
LINE
8
BLACK
6
CONTINUOUS
10
527.002
20
-124.904
11
537.718
21
-124.904
0
LINE
8
BLACK
6
CONTINUOUS
10
312.69
20
-123.714
11
525.812
21
-123.714
0
LINE
8
BLACK
6
CONTINUOUS
10
310.309
20
-112.998
11
310.309
21
-121.333
0
LINE
8
BLACK
6
CONTINUOUS
10
428.18
20
-207.058
11
429.371
21
-207.058
0
LINE
8
BLACK
6
CONTINUOUS
10
422.227
20
-207.058
11
423.418
21
-207.058
0
ARC
8
BLACK
10
425.799
20
-207.058
40
2.38125
50
-0
51
180
0
ARC
8
BLACK
10
541.29
20
-117.761
40
1.19063
50
-90
51
-0
0
ARC
8
BLACK
10
541.29
20
-112.998
40
1.19063
50
-0
51
90
0
LINE
8
BLACK
6
CONTINUOUS
10
505.571
20
-80.8514
11
537.718
21
-80.8514
0
LINE
8
BLACK
6
CONTINUOUS
10
431.752
20
-80.8514
11
451.993
21
-80.8514
0
LINE
8
BLACK
6
CONTINUOUS
10
399.606
20
-80.8514
11
419.846
21
-80.8514
0
LINE
8
BLACK
6
CONTINUOUS
10
337.693
20
-80.8514
11
346.027
21
-80.8514
0
LINE
8
BLACK
6
CONTINUOUS
10
313.88
20
-80.8514
11
326.977
21
-80.8514
0
LINE
8
BLACK
6
CONTINUOUS
10
453.184
20
-79.6607
11
504.38
21
-79.6607
0
LINE
8
BLACK
6
CONTINUOUS
10
421.037
20
-79.6607
11
430.562
21
-79.6607
0
LINE
8
BLACK
6
CONTINUOUS
10
347.218
20
-79.6607
11
398.415
21
-79.6607
0
LINE
8
BLACK
6
CONTINUOUS
10
328.168
20
-79.6607
11
336.502
21
-79.6607
0
ARC
8
BLACK
10
504.38
20
-80.8514
40
1.19063
50
-0
51
90
0
ARC
8
BLACK
10
453.184
20
-80.8514
40
1.19063
50
90
51
180
0
ARC
8
BLACK
10
430.562
20
-80.8514
40
1.19063
50
-0
51
90
0
ARC
8
BLACK
10
421.037
20
-80.8514
40
1.19063
50
90
51
180
0
ARC
8
BLACK
10
398.415
20
-80.8514
40
1.19063
50
-0
51
90
0
ARC
8
BLACK
10
347.218
20
-80.8514
40
1.19063
50
90
51
180
0
ARC
8
BLACK
10
336.502
20
-80.8514
40
1.19063
50
-0
51
90
0
ARC
8
BLACK
10
328.168
20
-80.8514
40
1.19063
50
90
51
180
0
ARC
8
BLACK
10
537.718
20
-121.333
40
3.57187
50
-90
51
-0
0
ARC
8
BLACK
10
527.002
20
-123.714
40
1.19063
50
180
51
270
0
LINE
8
BLACK
6
CONTINUOUS
10
461.518
20
-186.817
11
467.471
21
-186.817
0
LINE
8
BLACK
6
CONTINUOUS
10
384.127
20
-186.817
11
390.08
21
-186.817
0
LINE
8
BLACK
6
CONTINUOUS
10
392.462
20
-184.436
11
459.137
21
-184.436
0
ARC
8
BLACK
10
459.137
20
-186.817
40
2.38125
50
-0
51
90
0
ARC
8
BLACK
10
392.462
20
-186.817
40
2.38125
50
90
51
180
0
LINE
8
BLACK
6
CONTINUOUS
10
541.29
20
-189.198
11
541.29
21
-203.486
0
LINE
8
BLACK
6
CONTINUOUS
10
541.29
20
-170.148
11
541.29
21
-178.483
0
LINE
8
BLACK
6
CONTINUOUS
10
310.309
20
-189.198
11
310.309
21
-203.486
0
LINE
8
BLACK
6
CONTINUOUS
10
310.309
20
-170.148
11
310.309
21
-178.483
0
LINE
8
BLACK
6
CONTINUOUS
10
312.69
20
-186.817
11
384.127
21
-186.817
0
ARC
8
BLACK
10
538.909
20
-178.483
40
2.38125
50
-90
51
-0
0
ARC
8
BLACK
10
538.909
20
-189.198
40
2.38125
50
-0
51
90
0
LINE
8
BLACK
6
CONTINUOUS
10
538.909
20
-186.817
11
467.471
21
-186.817
0
ARC
8
BLACK
10
312.69
20
-189.198
40
2.38125
50
90
51
180
0
LINE
8
BLACK
6
CONTINUOUS
10
312.69
20
-180.864
11
538.909
21
-180.864
0
ARC
8
BLACK
10
312.69
20
-178.483
40
2.38125
50
180
51
270
0
ARC
8
BLACK
10
538.909
20
-101.092
40
2.38125
50
-0
51
90
0
LINE
8
BLACK
6
CONTINUOUS
10
541.29
20
-90.3764
11
541.29
21
-84.4232
0
ARC
8
BLACK
10
538.909
20
-90.3764
40
2.38125
50
-90
51
-0
0
LINE
8
BLACK
6
CONTINUOUS
10
522.24
20
-92.7576
11
538.909
21
-92.7576
0
LINE
8
BLACK
6
CONTINUOUS
10
517.477
20
-105.855
11
312.69
21
-105.855
0
LINE
8
BLACK
6
CONTINUOUS
10
519.859
20
-95.1389
11
519.859
21
-103.473
0
ARC
8
BLACK
10
517.477
20
-103.473
40
2.38125
50
-90
51
-0
0
ARC
8
BLACK
10
528.193
20
-101.092
40
2.38125
50
90
51
180
0
ARC
8
BLACK
10
522.24
20
-95.1389
40
2.38125
50
90
51
180
0
ARC
8
BLACK
10
312.69
20
-121.333
40
2.38125
50
180
51
270
0
ARC
8
BLACK
10
425.799
20
-109.426
40
3.57061
50
-138.172
51
-41.8418
0
LINE
8
BLACK
6
CONTINUOUS
10
310.309
20
-84.4232
11
310.309
21
-103.473
0
ARC
8
BLACK
10
312.69
20
-103.473
40
2.38125
50
180
51
270
0
ARC
8
BLACK
10
310.309
20
-109.426
40
3.57187
50
-90
51
-41.8351
0
LINE
8
BLACK
6
CONTINUOUS
10
538.909
20
-142.764
11
312.69
21
-142.764
0
LINE
8
BLACK
6
CONTINUOUS
10
541.29
20
-132.241
11
541.29
21
-140.383
0
ARC
8
BLACK
10
538.909
20
-140.383
40
2.38125
50
-90
51
-0
0
LINE
8
BLACK
6
CONTINUOUS
10
384.127
20
-129.667
11
312.69
21
-129.667
0
LINE
8
BLACK
6
CONTINUOUS
10
310.309
20
-132.048
11
310.309
21
-140.383
0
ARC
8
BLACK
10
312.69
20
-140.383
40
2.38125
50
180
51
270
0
ARC
8
BLACK
10
312.69
20
-132.048
40
2.38125
50
90
51
180
0
LINE
8
BLACK
6
CONTINUOUS
10
537.718
20
-129.667
11
467.471
21
-129.667
0
ARC
8
BLACK
10
541.29
20
-128.476
40
3.76509
50
-161.565
51
-90
0
LINE
8
BLACK
6
CONTINUOUS
10
312.69
20
-161.814
11
538.909
21
-161.814
0
LINE
8
BLACK
6
CONTINUOUS
10
310.309
20
-151.098
11
310.309
21
-159.433
0
LINE
8
BLACK
6
CONTINUOUS
10
312.69
20
-148.717
11
384.127
21
-148.717
0
LINE
8
BLACK
6
CONTINUOUS
10
538.909
20
-148.717
11
467.471
21
-148.717
0
LINE
8
BLACK
6
CONTINUOUS
10
541.29
20
-159.433
11
541.29
21
-151.098
0
ARC
8
BLACK
10
538.909
20
-159.433
40
2.38125
50
-90
51
-0
0
ARC
8
BLACK
10
538.909
20
-151.098
40
2.38125
50
-0
51
90
0
ARC
8
BLACK
10
312.69
20
-151.098
40
2.38125
50
90
51
180
0
ARC
8
BLACK
10
312.69
20
-159.433
40
2.38125
50
180
51
270
0
LINE
8
BLACK
6
CONTINUOUS
10
312.69
20
-167.767
11
384.127
21
-167.767
0
LINE
8
BLACK
6
CONTINUOUS
10
538.909
20
-167.767
11
467.471
21
-167.767
0
ARC
8
BLACK
10
538.909
20
-170.148
40
2.38125
50
-0
51
90
0
ARC
8
BLACK
10
312.69
20
-170.148
40
2.38125
50
90
51
180
0
CIRCLE
8
BLACK
10
425.799
20
-109.426
40
1.1
0
LINE
8
BLACK
6
CONTINUOUS
10
429.371
20
-207.058
11
537.718
21
-207.058
0
LINE
8
BLACK
6
CONTINUOUS
10
313.88
20
-207.058
11
422.227
21
-207.058
0
CIRCLE
8
BLACK
10
522.24
20
-109.426
40
1.1
0
CIRCLE
8
BLACK
10
541.29
20
-128.476
40
1.1
0
CIRCLE
8
BLACK
10
310.309
20
-109.426
40
1.1
0
CIRCLE
8
BLACK
10
425.799
20
-207.058
40
1.1
0
LINE
8
BLACK
6
CONTINUOUS
10
467.471
20
-167.767
11
384.127
21
-167.767
0
LINE
8
BLACK
6
CONTINUOUS
10
384.127
20
-129.667
11
467.471
21
-129.667
0
ARC
8
BLACK
10
463.899
20
-148.717
40
3.57187
50
180
51
360
0
CIRCLE
8
BLACK
10
463.899
20
-148.717
40
1.1
0
ARC
8
BLACK
10
387.699
20
-148.717
40
3.57187
50
180
51
360
0
LINE
8
BLACK
6
CONTINUOUS
10
391.271
20
-148.717
11
460.327
21
-148.717
0
ARC
8
BLACK
10
310.309
20
-80.8514
40
3.57187
50
-90
51
-0
0
ARC
8
BLACK
10
541.29
20
-80.8514
40
3.57187
50
180
51
270
0
ARC
8
BLACK
10
310.309
20
-207.058
40
3.57187
50
-0
51
90
0
CIRCLE
8
BLACK
10
310.309
20
-80.8514
40
1.1
0
ARC
8
BLACK
10
541.29
20
-207.058
40
3.57187
50
90
51
180
0
CIRCLE
8
BLACK
10
541.29
20
-207.058
40
1.1
0
CIRCLE
8
BLACK
10
310.309
20
-207.058
40
1.1
0
CIRCLE
8
BLACK
10
387.699
20
-148.717
40
1.1
0
CIRCLE
8
BLACK
10
541.29
20
-80.8514
40
1.1
0
ARC
8
BLACK
10
311.499
20
-82.042
40
4.7625
50
90
51
180
0
ARC
8
BLACK
10
540.099
20
-205.867
40
4.7625
50
-90
51
-0
0
LINE
8
BLACK
6
CONTINUOUS
10
540.099
20
-210.629
11
311.499
21
-210.629
0
LINE
8
BLACK
6
CONTINUOUS
10
323.799
20
-77.2795
11
527.799
21
-77.2795
0
LINE
8
BLACK
6
CONTINUOUS
10
544.862
20
-82.042
11
544.862
21
-205.867
0
LINE
8
BLACK
6
CONTINUOUS
10
306.737
20
-205.867
11
306.737
21
-82.042
0
ARC
8
BLACK
10
311.499
20
-205.867
40
4.7625
50
180
51
270
0
LINE
8
BLACK
6
CONTINUOUS
10
527.799
20
-77.2795
11
540.099
21
-77.2795
0
LINE
8
BLACK
6
CONTINUOUS
10
311.499
20
-77.2795
11
323.799
21
-77.2795
0
ARC
8
BLACK
10
540.099
20
-82.042
40
4.7625
50
-0
51
90
  0
ENDSEC
  0
EOF
