M48
; DRILL file {KiCad (5.1.5)-3} date 2021-02-20 19:48:12
; FORMAT={-:-/ absolute / metric / decimal}
; #@! TF.CreationDate,2021-02-20T19:48:12-08:00
; #@! TF.GenerationSoftware,Kicad,Pcbnew,(5.1.5)-3
FMAT,2
METRIC
T1C0.400
T2C0.600
T3C0.700
T4C0.800
T5C1.000
T6C1.100
T7C1.500
T8C0.500
T9C1.702
T10C2.200
T11C3.000
T12C3.048
T13C3.988
%
G90
G05
T1
X105.216Y-252.67
X124.266Y-253.177
X143.316Y-253.773
X156.821Y-212.423
X159.456Y-213.698
X161.75Y-238.586
X162.366Y-253.773
X163.257Y-213.474
X167.251Y-212.993
X170.886Y-213.358
X176.196Y-215.043
X179.751Y-213.493
X180.467Y-239.522
X181.416Y-254.368
X183.751Y-214.493
X187.626Y-212.868
X191.251Y-214.493
X199.85Y-238.84
X200.466Y-254.964
X219.516Y-250.796
X226.441Y-238.154
X227.457Y-237.246
X227.79Y-216.768
X228.219Y-234.521
X229.235Y-235.438
X230.505Y-236.3
X235.156Y-211.662
X236.68Y-212.468
X237.95Y-238.84
X238.566Y-251.392
X238.698Y-213.018
X243.751Y-213.493
X247.751Y-214.493
X251.841Y-218.138
X254.552Y-216.278
X256.746Y-238.84
X257.616Y-251.987
X258.906Y-215.838
X264.251Y-213.493
X268.026Y-215.268
X276.666Y-252.583
X285.448Y-223.854
X285.448Y-224.87
X295.716Y-253.178
X313.865Y-254.333
X121.111Y-210.069
X121.111Y-211.419
X121.961Y-210.069
X121.961Y-211.419
X122.811Y-210.069
X122.811Y-211.419
X123.661Y-210.069
X123.661Y-211.419
X124.511Y-210.069
X124.511Y-211.419
X125.361Y-210.069
X125.361Y-211.419
X126.211Y-210.069
X126.211Y-211.419
X127.061Y-210.069
X127.061Y-211.419
T2
X225.631Y-221.123
X225.631Y-222.623
T3
X130.0Y-214.71
X130.0Y-219.79
X126.19Y-214.71
X126.19Y-219.79
X234.013Y-220.298
X234.013Y-225.378
X118.57Y-214.82
X118.57Y-219.9
X122.38Y-214.82
X122.38Y-219.9
T4
X147.701Y-206.629
X147.701Y-214.249
X230.33Y-220.298
X230.33Y-227.918
X213.901Y-206.883
X221.401Y-206.883
X188.801Y-218.059
X188.801Y-225.679
X177.371Y-209.169
X177.371Y-216.789
X270.661Y-218.059
X270.661Y-225.679
X291.211Y-209.169
X291.211Y-216.789
X164.441Y-206.629
X164.441Y-214.249
X168.251Y-209.169
X168.251Y-216.789
X201.081Y-209.931
X201.081Y-217.551
X203.621Y-209.931
X203.621Y-217.551
X206.161Y-209.931
X206.161Y-217.551
X208.701Y-209.931
X208.701Y-217.551
X211.241Y-209.931
X211.241Y-217.551
X213.781Y-209.931
X213.781Y-217.551
X216.321Y-209.931
X216.321Y-217.551
X218.861Y-209.931
X218.861Y-217.551
X221.401Y-209.931
X221.401Y-217.551
X223.941Y-209.931
X223.941Y-217.551
X226.481Y-209.931
X226.481Y-217.551
X229.021Y-209.931
X229.021Y-217.551
X231.561Y-209.931
X231.561Y-217.551
X234.101Y-209.931
X234.101Y-217.551
X205.946Y-222.298
X205.946Y-227.178
X181.181Y-218.059
X181.181Y-225.679
X242.491Y-209.169
X242.491Y-216.789
X140.081Y-206.629
X140.081Y-214.249
X295.021Y-206.629
X295.021Y-214.249
X168.251Y-220.599
X168.251Y-228.219
X278.281Y-206.629
X278.281Y-214.249
X172.061Y-206.629
X172.061Y-214.249
X287.401Y-218.059
X287.401Y-225.679
X151.511Y-209.169
X151.511Y-216.789
X298.831Y-220.599
X298.831Y-228.219
X257.731Y-209.169
X257.731Y-216.789
X291.211Y-220.599
X291.211Y-228.219
X278.281Y-218.059
X278.281Y-225.679
X192.611Y-209.169
X192.611Y-216.789
X156.821Y-218.059
X156.821Y-225.679
X246.301Y-218.059
X246.301Y-225.679
X253.921Y-218.059
X253.921Y-225.679
X136.271Y-209.169
X136.271Y-216.789
X246.301Y-206.629
X246.301Y-214.249
X295.021Y-218.059
X295.021Y-225.679
X136.271Y-220.599
X136.271Y-228.219
X298.831Y-209.169
X298.831Y-216.789
X184.991Y-209.169
X184.991Y-216.789
X283.591Y-209.169
X283.591Y-216.789
X147.701Y-218.059
X147.701Y-225.679
X143.891Y-220.599
X143.891Y-228.219
X151.511Y-220.599
X151.511Y-228.219
X253.921Y-206.629
X253.921Y-214.249
X143.891Y-209.169
X143.891Y-216.789
X192.611Y-220.599
X192.611Y-228.219
X242.491Y-220.599
X242.491Y-228.219
X274.471Y-220.599
X274.471Y-228.219
X177.371Y-220.599
X177.371Y-228.219
X188.801Y-206.629
X188.801Y-214.249
X263.041Y-218.059
X263.041Y-225.679
X266.851Y-209.169
X266.851Y-216.789
X213.813Y-221.123
X221.313Y-221.123
X257.731Y-220.599
X257.731Y-228.219
X160.631Y-209.169
X160.631Y-216.789
X120.348Y-228.108
X127.968Y-228.108
X250.111Y-209.169
X250.111Y-216.789
X201.12Y-221.18
X201.12Y-228.68
X164.441Y-218.059
X164.441Y-225.679
X287.401Y-206.629
X287.401Y-214.249
X266.851Y-220.599
X266.851Y-228.219
X270.661Y-206.629
X270.661Y-214.249
X263.041Y-206.629
X263.041Y-214.249
X156.821Y-206.629
X156.821Y-214.249
X120.348Y-224.362
X127.968Y-224.362
X283.591Y-220.599
X283.591Y-228.219
X140.081Y-218.059
X140.081Y-225.679
X184.991Y-220.599
X184.991Y-228.219
X210.772Y-221.18
X210.772Y-228.68
X172.061Y-218.059
X172.061Y-225.679
X160.631Y-220.599
X160.631Y-228.219
X181.181Y-206.629
X181.181Y-214.249
X274.471Y-209.169
X274.471Y-216.789
X250.111Y-220.599
X250.111Y-228.219
T5
X108.379Y-214.455
X108.379Y-216.995
X108.379Y-219.535
X110.919Y-214.455
X110.919Y-216.995
X110.919Y-219.535
X324.589Y-233.355
X324.589Y-247.855
X327.089Y-233.355
X329.589Y-233.355
X329.589Y-247.855
T6
X307.657Y-208.915
X307.657Y-213.415
X314.157Y-208.915
X314.157Y-213.415
X318.452Y-208.915
X318.452Y-213.415
X324.952Y-208.915
X324.952Y-213.415
T8
X216.801Y-201.005
X216.801Y-202.505
X217.551Y-201.005
X217.551Y-202.505
X218.301Y-201.005
X218.301Y-202.505
X216.801Y-336.356
X216.801Y-337.856
X217.551Y-336.356
X217.551Y-337.856
X218.301Y-336.356
X218.301Y-337.856
X166.801Y-201.005
X166.801Y-202.505
X167.551Y-201.005
X167.551Y-202.505
X168.301Y-201.005
X168.301Y-202.505
X266.801Y-201.005
X266.801Y-202.505
X267.551Y-201.005
X267.551Y-202.505
X268.301Y-201.005
X268.301Y-202.505
X166.801Y-336.356
X166.801Y-337.856
X167.551Y-336.356
X167.551Y-337.856
X168.301Y-336.356
X168.301Y-337.856
X266.801Y-336.356
X266.801Y-337.856
X267.551Y-336.356
X267.551Y-337.856
X268.301Y-336.356
X268.301Y-337.856
X116.801Y-201.005
X116.801Y-202.505
X117.551Y-201.005
X117.551Y-202.505
X118.301Y-201.005
X118.301Y-202.505
X116.801Y-336.356
X116.801Y-337.856
X117.551Y-336.356
X117.551Y-337.856
X118.301Y-336.356
X118.301Y-337.856
X316.801Y-336.356
X316.801Y-337.856
X317.551Y-336.356
X317.551Y-337.856
X318.301Y-336.356
X318.301Y-337.856
X316.801Y-201.005
X316.801Y-202.505
X317.551Y-201.005
X317.551Y-202.505
X318.301Y-201.005
X318.301Y-202.505
T9
X107.696Y-245.618
X117.856Y-245.618
X107.696Y-302.768
X117.856Y-302.768
X126.746Y-245.618
X136.906Y-245.618
X298.196Y-321.818
X308.356Y-321.818
X183.896Y-264.668
X194.056Y-264.668
X145.796Y-264.668
X155.956Y-264.668
X298.196Y-245.618
X308.356Y-245.618
X145.796Y-321.818
X155.956Y-321.818
X145.796Y-302.768
X155.956Y-302.768
X221.996Y-264.668
X232.156Y-264.668
X202.946Y-283.718
X213.106Y-283.718
X107.696Y-321.818
X117.856Y-321.818
X126.746Y-264.668
X136.906Y-264.668
X183.896Y-321.818
X194.056Y-321.818
X298.196Y-264.668
X308.356Y-264.668
X145.796Y-245.618
X155.956Y-245.618
X279.146Y-264.668
X289.306Y-264.668
X260.096Y-302.768
X270.256Y-302.768
X126.746Y-321.818
X136.906Y-321.818
X202.946Y-302.768
X213.106Y-302.768
X221.996Y-302.768
X232.156Y-302.768
X202.946Y-264.668
X213.106Y-264.668
X183.896Y-302.768
X194.056Y-302.768
X298.196Y-283.718
X308.356Y-283.718
X164.846Y-264.668
X175.006Y-264.668
X164.846Y-283.718
X175.006Y-283.718
X241.046Y-283.718
X251.206Y-283.718
X260.096Y-264.668
X270.256Y-264.668
X317.246Y-321.818
X327.406Y-321.818
X202.946Y-321.818
X213.106Y-321.818
X221.996Y-321.818
X232.156Y-321.818
X317.246Y-283.718
X327.406Y-283.718
X317.246Y-264.668
X327.406Y-264.668
X164.846Y-302.768
X175.006Y-302.768
X298.196Y-302.768
X308.356Y-302.768
X260.096Y-245.618
X270.256Y-245.618
X126.746Y-302.768
X136.906Y-302.768
X260.096Y-321.818
X270.256Y-321.818
X221.996Y-245.618
X232.156Y-245.618
X241.046Y-245.618
X251.206Y-245.618
X279.146Y-283.718
X289.306Y-283.718
X279.146Y-302.768
X289.306Y-302.768
X145.796Y-283.718
X155.956Y-283.718
X164.846Y-245.618
X175.006Y-245.618
X241.046Y-264.668
X251.206Y-264.668
X107.696Y-264.668
X117.856Y-264.668
X212.471Y-321.818
X222.631Y-321.818
X126.746Y-283.718
X136.906Y-283.718
X231.521Y-321.818
X241.681Y-321.818
X279.146Y-321.818
X289.306Y-321.818
X183.896Y-245.618
X194.056Y-245.618
X279.146Y-245.618
X289.306Y-245.618
X241.046Y-302.768
X251.206Y-302.768
X107.696Y-283.718
X117.856Y-283.718
X221.996Y-283.718
X232.156Y-283.718
X193.421Y-321.818
X203.581Y-321.818
X317.246Y-302.768
X327.406Y-302.768
X202.946Y-245.618
X213.106Y-245.618
X164.846Y-321.818
X175.006Y-321.818
X183.896Y-283.718
X194.056Y-283.718
X260.096Y-283.718
X270.256Y-283.718
X241.046Y-321.818
X251.206Y-321.818
T10
X333.042Y-206.327
X179.451Y-274.193
X255.651Y-409.543
X102.06Y-197.184
X102.06Y-363.109
X333.043Y-227.759
X102.06Y-234.902
X217.551Y-234.902
X333.042Y-197.184
X179.451Y-409.543
X217.551Y-99.552
X333.042Y-467.884
X217.551Y-361.918
X333.042Y-253.952
X217.551Y-370.252
X333.042Y-389.302
X179.451Y-138.843
X313.992Y-234.902
X102.06Y-467.884
X102.06Y-332.534
X102.06Y-341.677
X255.651Y-274.193
X255.651Y-138.843
X217.551Y-332.534
X333.042Y-332.534
X313.992Y-370.252
X333.042Y-341.677
X217.551Y-467.502
X313.992Y-99.552
X217.551Y-226.568
X102.06Y-370.252
X217.551Y-197.184
X102.06Y-206.327
X102.06Y-99.552
X333.042Y-118.602
X333.043Y-363.109
X102.06Y-227.759
T11
X223.266Y-262.128
X229.616Y-259.588
X204.216Y-281.178
X210.566Y-278.638
X108.966Y-319.278
X115.316Y-316.738
X128.016Y-262.128
X134.366Y-259.588
X185.166Y-319.278
X191.516Y-316.738
X299.466Y-262.128
X305.816Y-259.588
X147.066Y-243.078
X153.416Y-240.538
X280.416Y-262.128
X286.766Y-259.588
X261.366Y-300.228
X267.716Y-297.688
X128.016Y-319.278
X134.366Y-316.738
X204.216Y-300.228
X210.566Y-297.688
X223.266Y-300.228
X229.616Y-297.688
X204.216Y-262.128
X210.566Y-259.588
X185.166Y-300.228
X191.516Y-297.688
X299.466Y-281.178
X305.816Y-278.638
X166.116Y-262.128
X172.466Y-259.588
X166.116Y-281.178
X172.466Y-278.638
X242.316Y-281.178
X248.666Y-278.638
X261.366Y-262.128
X267.716Y-259.588
X318.516Y-319.278
X324.866Y-316.738
X204.216Y-319.278
X210.566Y-316.738
X223.266Y-319.278
X229.616Y-316.738
X318.516Y-281.178
X324.866Y-278.638
X318.516Y-262.128
X324.866Y-259.588
X166.116Y-300.228
X172.466Y-297.688
X299.466Y-300.228
X305.816Y-297.688
X261.366Y-243.078
X267.716Y-240.538
X128.016Y-300.228
X134.366Y-297.688
X261.366Y-319.278
X267.716Y-316.738
X223.266Y-243.078
X229.616Y-240.538
X242.316Y-243.078
X248.666Y-240.538
X280.416Y-281.178
X286.766Y-278.638
X280.416Y-300.228
X286.766Y-297.688
X147.066Y-281.178
X153.416Y-278.638
X166.116Y-243.078
X172.466Y-240.538
X242.316Y-262.128
X248.666Y-259.588
X108.966Y-262.128
X115.316Y-259.588
X215.011Y-326.898
X221.361Y-324.358
X128.016Y-281.178
X134.366Y-278.638
X234.061Y-326.898
X240.411Y-324.358
X280.416Y-319.278
X286.766Y-316.738
X185.166Y-243.078
X191.516Y-240.538
X280.416Y-243.078
X286.766Y-240.538
X242.316Y-300.228
X248.666Y-297.688
X108.966Y-281.178
X115.316Y-278.638
X223.266Y-281.178
X229.616Y-278.638
X195.961Y-326.898
X202.311Y-324.358
X318.516Y-300.228
X324.866Y-297.688
X204.216Y-243.078
X210.566Y-240.538
X166.116Y-319.278
X172.466Y-316.738
X185.166Y-281.178
X191.516Y-278.638
X261.366Y-281.178
X267.716Y-278.638
X242.316Y-319.278
X248.666Y-316.738
X108.966Y-243.078
X115.316Y-240.538
X108.966Y-300.228
X115.316Y-297.688
X128.016Y-243.078
X134.366Y-240.538
X299.466Y-319.278
X305.816Y-316.738
X185.166Y-262.128
X191.516Y-259.588
X147.066Y-262.128
X153.416Y-259.588
X299.466Y-243.078
X305.816Y-240.538
X147.066Y-319.278
X153.416Y-316.738
X147.066Y-300.228
X153.416Y-297.688
T12
X205.651Y-328.803
X229.451Y-328.803
X186.601Y-328.803
X210.401Y-328.803
X224.701Y-328.803
X248.501Y-328.803
T13
X188.976Y-264.668
X150.876Y-264.668
X303.276Y-245.618
X150.876Y-321.818
X150.876Y-302.768
X227.076Y-264.668
X208.026Y-283.718
X112.776Y-321.818
X131.826Y-264.668
X188.976Y-321.818
X303.276Y-264.668
X150.876Y-245.618
X284.226Y-264.668
X265.176Y-302.768
X131.826Y-321.818
X208.026Y-302.768
X227.076Y-302.768
X208.026Y-264.668
X188.976Y-302.768
X303.276Y-283.718
X169.926Y-264.668
X169.926Y-283.718
X246.126Y-283.718
X265.176Y-264.668
X322.326Y-321.818
X208.026Y-321.818
X227.076Y-321.818
X322.326Y-283.718
X322.326Y-264.668
X169.926Y-302.768
X303.276Y-302.768
X265.176Y-245.618
X131.826Y-302.768
X265.176Y-321.818
X205.651Y-313.563
X229.451Y-313.563
X227.076Y-245.618
X246.126Y-245.618
X284.226Y-283.718
X284.226Y-302.768
X150.876Y-283.718
X169.926Y-245.618
X186.601Y-313.563
X210.401Y-313.563
X246.126Y-264.668
X112.776Y-264.668
X217.551Y-321.818
X131.826Y-283.718
X236.601Y-321.818
X284.226Y-321.818
X188.976Y-245.618
X284.226Y-245.618
X246.126Y-302.768
X224.701Y-313.563
X248.501Y-313.563
X112.776Y-283.718
X227.076Y-283.718
X198.501Y-321.818
X322.326Y-302.768
X208.026Y-245.618
X169.926Y-321.818
X188.976Y-283.718
X265.176Y-283.718
X246.126Y-321.818
X112.776Y-245.618
X112.776Y-302.768
X131.826Y-245.618
X303.276Y-321.818
T2
G00X119.761Y-207.459
M15
G01X119.761Y-206.659
M16
G05
G00X119.761Y-211.189
M15
G01X119.761Y-209.689
M16
G05
G00X128.411Y-207.459
M15
G01X128.411Y-206.659
M16
G05
G00X128.411Y-211.189
M15
G01X128.411Y-209.689
M16
G05
T7
G00X321.488Y-240.206
M15
G01X321.488Y-241.505
M16
G05
G00X332.688Y-240.206
M15
G01X332.688Y-241.505
M16
G05
T0
M30
