G04 #@! TF.GenerationSoftware,KiCad,Pcbnew,(5.1.5)-3*
G04 #@! TF.CreationDate,2021-03-02T19:45:33-08:00*
G04 #@! TF.ProjectId,framework,6672616d-6577-46f7-926b-2e6b69636164,1*
G04 #@! TF.SameCoordinates,Original*
G04 #@! TF.FileFunction,Profile,NP*
%FSLAX46Y46*%
G04 Gerber Fmt 4.6, Leading zero omitted, Abs format (unit mm)*
G04 Created by KiCad (PCBNEW (5.1.5)-3) date 2021-03-02 19:45:33*
%MOMM*%
%LPD*%
G04 APERTURE LIST*
%ADD10C,0.050000*%
G04 APERTURE END LIST*
D10*
X201026000Y-193468000D02*
X195976000Y-193468000D01*
X239126000Y-193468000D02*
X234076000Y-193468000D01*
X234076000Y-179468000D02*
X239126000Y-179468000D01*
X195976000Y-179468000D02*
X201026000Y-179468000D01*
X319551000Y-336105500D02*
X331851000Y-336105500D01*
X319551000Y-338105500D02*
X331851000Y-338105500D01*
X269551000Y-336105500D02*
X315551000Y-336105500D01*
X269551000Y-338105500D02*
X315551000Y-338105500D01*
X219551000Y-336105500D02*
X265551000Y-336105500D01*
X219551000Y-338105500D02*
X265551000Y-338105500D01*
X169551000Y-336105500D02*
X215551000Y-336105500D01*
X169551000Y-338105500D02*
X215551000Y-338105500D01*
X119551000Y-336105500D02*
X165551000Y-336105500D01*
X119551000Y-338105500D02*
X165551000Y-338105500D01*
X103251000Y-336105500D02*
X115551000Y-336105500D01*
X103251000Y-338105500D02*
X115551000Y-338105500D01*
X115551000Y-336105500D02*
G75*
G02X115551000Y-338105500I0J-1000000D01*
G01*
X119551000Y-338105500D02*
G75*
G02X119551000Y-336105500I0J1000000D01*
G01*
X165551000Y-336105500D02*
G75*
G02X165551000Y-338105500I0J-1000000D01*
G01*
X169551000Y-338105500D02*
G75*
G02X169551000Y-336105500I0J1000000D01*
G01*
X215551000Y-336105500D02*
G75*
G02X215551000Y-338105500I0J-1000000D01*
G01*
X219551000Y-338105500D02*
G75*
G02X219551000Y-336105500I0J1000000D01*
G01*
X265551000Y-336105500D02*
G75*
G02X265551000Y-338105500I0J-1000000D01*
G01*
X269551000Y-338105500D02*
G75*
G02X269551000Y-336105500I0J1000000D01*
G01*
X315551000Y-336105500D02*
G75*
G02X315551000Y-338105500I0J-1000000D01*
G01*
X319551000Y-338105500D02*
G75*
G02X319551000Y-336105500I0J1000000D01*
G01*
X319551000Y-200755500D02*
X331851000Y-200755500D01*
X319551000Y-202755500D02*
X331851000Y-202755500D01*
X269551000Y-200755500D02*
X315551000Y-200755500D01*
X269551000Y-202755500D02*
X315551000Y-202755500D01*
X219551000Y-200755500D02*
X265551000Y-200755500D01*
X219551000Y-202755500D02*
X265551000Y-202755500D01*
X169551000Y-200755500D02*
X215551000Y-200755500D01*
X169551000Y-202755500D02*
X215551000Y-202755500D01*
X119551000Y-200755500D02*
X165551000Y-200755500D01*
X119551000Y-202755500D02*
X165551000Y-202755500D01*
X103251000Y-200755500D02*
X115551000Y-200755500D01*
X103251000Y-202755500D02*
X115551000Y-202755500D01*
X115551000Y-200755500D02*
G75*
G02X115551000Y-202755500I0J-1000000D01*
G01*
X119551000Y-202755500D02*
G75*
G02X119551000Y-200755500I0J1000000D01*
G01*
X165551000Y-200755500D02*
G75*
G02X165551000Y-202755500I0J-1000000D01*
G01*
X169551000Y-202755500D02*
G75*
G02X169551000Y-200755500I0J1000000D01*
G01*
X215551000Y-200755500D02*
G75*
G02X215551000Y-202755500I0J-1000000D01*
G01*
X219551000Y-202755500D02*
G75*
G02X219551000Y-200755500I0J1000000D01*
G01*
X265551000Y-200755500D02*
G75*
G02X265551000Y-202755500I0J-1000000D01*
G01*
X269551000Y-202755500D02*
G75*
G02X269551000Y-200755500I0J1000000D01*
G01*
X315551000Y-200755500D02*
G75*
G02X315551000Y-202755500I0J-1000000D01*
G01*
X319551000Y-202755500D02*
G75*
G02X319551000Y-200755500I0J1000000D01*
G01*
X310276000Y-117268000D02*
X310276000Y-103268000D01*
X296276000Y-117268000D02*
X310276000Y-117268000D01*
X310276000Y-103268000D02*
X296276000Y-103268000D01*
X296276000Y-103268000D02*
X296276000Y-117268000D01*
X201026000Y-193468000D02*
X234076000Y-193468000D01*
X201026000Y-179468000D02*
X234076000Y-179468000D01*
X253126000Y-193468000D02*
X253126000Y-179468000D01*
X239126000Y-193468000D02*
X253126000Y-193468000D01*
X253126000Y-179468000D02*
X239126000Y-179468000D01*
X272176000Y-193468000D02*
X272176000Y-179468000D01*
X258176000Y-193468000D02*
X272176000Y-193468000D01*
X272176000Y-179468000D02*
X258176000Y-179468000D01*
X258176000Y-179468000D02*
X258176000Y-193468000D01*
X291226000Y-193468000D02*
X291226000Y-179468000D01*
X277226000Y-193468000D02*
X291226000Y-193468000D01*
X291226000Y-179468000D02*
X277226000Y-179468000D01*
X277226000Y-179468000D02*
X277226000Y-193468000D01*
X310276000Y-193468000D02*
X310276000Y-179468000D01*
X296276000Y-193468000D02*
X310276000Y-193468000D01*
X310276000Y-179468000D02*
X296276000Y-179468000D01*
X296276000Y-179468000D02*
X296276000Y-193468000D01*
X329326000Y-193468000D02*
X329326000Y-179468000D01*
X315326000Y-193468000D02*
X329326000Y-193468000D01*
X329326000Y-179468000D02*
X315326000Y-179468000D01*
X315326000Y-179468000D02*
X315326000Y-193468000D01*
X181976000Y-193468000D02*
X195976000Y-193468000D01*
X195976000Y-179468000D02*
X181976000Y-179468000D01*
X181976000Y-179468000D02*
X181976000Y-193468000D01*
X176926000Y-136318000D02*
X176926000Y-122318000D01*
X162926000Y-136318000D02*
X176926000Y-136318000D01*
X176926000Y-122318000D02*
X162926000Y-122318000D01*
X162926000Y-122318000D02*
X162926000Y-136318000D01*
X176926000Y-155368000D02*
X176926000Y-141368000D01*
X162926000Y-155368000D02*
X176926000Y-155368000D01*
X176926000Y-141368000D02*
X162926000Y-141368000D01*
X162926000Y-141368000D02*
X162926000Y-155368000D01*
X176926000Y-174418000D02*
X176926000Y-160418000D01*
X162926000Y-174418000D02*
X176926000Y-174418000D01*
X176926000Y-160418000D02*
X162926000Y-160418000D01*
X162926000Y-160418000D02*
X162926000Y-174418000D01*
X310276000Y-155368000D02*
X310276000Y-141368000D01*
X329326000Y-155368000D02*
X329326000Y-141368000D01*
X329326000Y-160418000D02*
X315326000Y-160418000D01*
X296276000Y-122318000D02*
X296276000Y-136318000D01*
X296276000Y-155368000D02*
X310276000Y-155368000D01*
X315326000Y-141368000D02*
X315326000Y-155368000D01*
X315326000Y-155368000D02*
X329326000Y-155368000D01*
X310276000Y-141368000D02*
X296276000Y-141368000D01*
X310276000Y-122318000D02*
X296276000Y-122318000D01*
X296276000Y-136318000D02*
X310276000Y-136318000D01*
X329326000Y-122318000D02*
X315326000Y-122318000D01*
X315326000Y-160418000D02*
X315326000Y-174418000D01*
X315326000Y-174418000D02*
X329326000Y-174418000D01*
X315326000Y-122318000D02*
X315326000Y-136318000D01*
X329326000Y-136318000D02*
X329326000Y-122318000D01*
X296276000Y-141368000D02*
X296276000Y-155368000D01*
X310276000Y-136318000D02*
X310276000Y-122318000D01*
X296276000Y-174418000D02*
X310276000Y-174418000D01*
X310276000Y-174418000D02*
X310276000Y-160418000D01*
X296276000Y-160418000D02*
X296276000Y-174418000D01*
X315326000Y-136318000D02*
X329326000Y-136318000D01*
X329326000Y-141368000D02*
X315326000Y-141368000D01*
X310276000Y-160418000D02*
X296276000Y-160418000D01*
X329326000Y-174418000D02*
X329326000Y-160418000D01*
X291226000Y-103268000D02*
X277226000Y-103268000D01*
X291226000Y-117268000D02*
X291226000Y-103268000D01*
X277226000Y-103268000D02*
X277226000Y-117268000D01*
X239126000Y-117268000D02*
X253126000Y-117268000D01*
X239126000Y-155368000D02*
X253126000Y-155368000D01*
X258176000Y-117268000D02*
X272176000Y-117268000D01*
X253126000Y-122318000D02*
X239126000Y-122318000D01*
X239126000Y-160418000D02*
X239126000Y-174418000D01*
X253126000Y-174418000D02*
X253126000Y-160418000D01*
X253126000Y-155368000D02*
X253126000Y-141368000D01*
X239126000Y-141368000D02*
X239126000Y-155368000D01*
X239126000Y-174418000D02*
X253126000Y-174418000D01*
X239126000Y-103268000D02*
X239126000Y-117268000D01*
X253126000Y-103268000D02*
X239126000Y-103268000D01*
X253126000Y-117268000D02*
X253126000Y-103268000D01*
X272176000Y-136318000D02*
X272176000Y-122318000D01*
X239126000Y-122318000D02*
X239126000Y-136318000D01*
X272176000Y-117268000D02*
X272176000Y-103268000D01*
X253126000Y-136318000D02*
X253126000Y-122318000D01*
X258176000Y-136318000D02*
X272176000Y-136318000D01*
X239126000Y-136318000D02*
X253126000Y-136318000D01*
X253126000Y-141368000D02*
X239126000Y-141368000D01*
X258176000Y-103268000D02*
X258176000Y-117268000D01*
X272176000Y-103268000D02*
X258176000Y-103268000D01*
X253126000Y-160418000D02*
X239126000Y-160418000D01*
X258176000Y-155368000D02*
X272176000Y-155368000D01*
X277226000Y-141368000D02*
X277226000Y-155368000D01*
X277226000Y-117268000D02*
X291226000Y-117268000D01*
X277226000Y-122318000D02*
X277226000Y-136318000D01*
X291226000Y-122318000D02*
X277226000Y-122318000D01*
X277226000Y-136318000D02*
X291226000Y-136318000D01*
X277226000Y-155368000D02*
X291226000Y-155368000D01*
X277226000Y-160418000D02*
X277226000Y-174418000D01*
X258176000Y-174418000D02*
X272176000Y-174418000D01*
X291226000Y-136318000D02*
X291226000Y-122318000D01*
X291226000Y-141368000D02*
X277226000Y-141368000D01*
X272176000Y-174418000D02*
X272176000Y-160418000D01*
X291226000Y-174418000D02*
X291226000Y-160418000D01*
X291226000Y-155368000D02*
X291226000Y-141368000D01*
X291226000Y-160418000D02*
X277226000Y-160418000D01*
X272176000Y-122318000D02*
X258176000Y-122318000D01*
X277226000Y-174418000D02*
X291226000Y-174418000D01*
X272176000Y-160418000D02*
X258176000Y-160418000D01*
X258176000Y-141368000D02*
X258176000Y-155368000D01*
X272176000Y-155368000D02*
X272176000Y-141368000D01*
X258176000Y-160418000D02*
X258176000Y-174418000D01*
X272176000Y-141368000D02*
X258176000Y-141368000D01*
X258176000Y-122318000D02*
X258176000Y-136318000D01*
X234076000Y-103268000D02*
X220076000Y-103268000D01*
X234076000Y-117268000D02*
X234076000Y-103268000D01*
X220076000Y-103268000D02*
X220076000Y-117268000D01*
X181976000Y-117268000D02*
X195976000Y-117268000D01*
X181976000Y-155368000D02*
X195976000Y-155368000D01*
X201026000Y-117268000D02*
X215026000Y-117268000D01*
X195976000Y-122318000D02*
X181976000Y-122318000D01*
X181976000Y-160418000D02*
X181976000Y-174418000D01*
X195976000Y-174418000D02*
X195976000Y-160418000D01*
X195976000Y-155368000D02*
X195976000Y-141368000D01*
X181976000Y-141368000D02*
X181976000Y-155368000D01*
X181976000Y-174418000D02*
X195976000Y-174418000D01*
X181976000Y-103268000D02*
X181976000Y-117268000D01*
X195976000Y-103268000D02*
X181976000Y-103268000D01*
X195976000Y-117268000D02*
X195976000Y-103268000D01*
X215026000Y-136318000D02*
X215026000Y-122318000D01*
X181976000Y-122318000D02*
X181976000Y-136318000D01*
X215026000Y-117268000D02*
X215026000Y-103268000D01*
X195976000Y-136318000D02*
X195976000Y-122318000D01*
X201026000Y-136318000D02*
X215026000Y-136318000D01*
X181976000Y-136318000D02*
X195976000Y-136318000D01*
X195976000Y-141368000D02*
X181976000Y-141368000D01*
X201026000Y-103268000D02*
X201026000Y-117268000D01*
X215026000Y-103268000D02*
X201026000Y-103268000D01*
X195976000Y-160418000D02*
X181976000Y-160418000D01*
X201026000Y-155368000D02*
X215026000Y-155368000D01*
X220076000Y-141368000D02*
X220076000Y-155368000D01*
X220076000Y-117268000D02*
X234076000Y-117268000D01*
X220076000Y-122318000D02*
X220076000Y-136318000D01*
X234076000Y-122318000D02*
X220076000Y-122318000D01*
X220076000Y-136318000D02*
X234076000Y-136318000D01*
X220076000Y-155368000D02*
X234076000Y-155368000D01*
X220076000Y-160418000D02*
X220076000Y-174418000D01*
X201026000Y-174418000D02*
X215026000Y-174418000D01*
X234076000Y-136318000D02*
X234076000Y-122318000D01*
X234076000Y-141368000D02*
X220076000Y-141368000D01*
X215026000Y-174418000D02*
X215026000Y-160418000D01*
X234076000Y-174418000D02*
X234076000Y-160418000D01*
X234076000Y-155368000D02*
X234076000Y-141368000D01*
X234076000Y-160418000D02*
X220076000Y-160418000D01*
X215026000Y-122318000D02*
X201026000Y-122318000D01*
X220076000Y-174418000D02*
X234076000Y-174418000D01*
X215026000Y-160418000D02*
X201026000Y-160418000D01*
X201026000Y-141368000D02*
X201026000Y-155368000D01*
X215026000Y-155368000D02*
X215026000Y-141368000D01*
X201026000Y-160418000D02*
X201026000Y-174418000D01*
X215026000Y-141368000D02*
X201026000Y-141368000D01*
X201026000Y-122318000D02*
X201026000Y-136318000D01*
X162926000Y-103268000D02*
X162926000Y-117268000D01*
X176926000Y-103268000D02*
X162926000Y-103268000D01*
X176926000Y-117268000D02*
X176926000Y-103268000D01*
X162926000Y-117268000D02*
X176926000Y-117268000D01*
X143876000Y-103268000D02*
X143876000Y-117268000D01*
X157876000Y-103268000D02*
X143876000Y-103268000D01*
X157876000Y-117268000D02*
X157876000Y-103268000D01*
X143876000Y-117268000D02*
X157876000Y-117268000D01*
X143876000Y-122318000D02*
X143876000Y-136318000D01*
X157876000Y-122318000D02*
X143876000Y-122318000D01*
X157876000Y-136318000D02*
X157876000Y-122318000D01*
X143876000Y-136318000D02*
X157876000Y-136318000D01*
X143876000Y-141368000D02*
X143876000Y-155368000D01*
X157876000Y-141368000D02*
X143876000Y-141368000D01*
X157876000Y-155368000D02*
X157876000Y-141368000D01*
X143876000Y-155368000D02*
X157876000Y-155368000D01*
X143876000Y-160418000D02*
X143876000Y-174418000D01*
X157876000Y-160418000D02*
X143876000Y-160418000D01*
X157876000Y-174418000D02*
X157876000Y-160418000D01*
X143876000Y-174418000D02*
X157876000Y-174418000D01*
X124826000Y-160418000D02*
X124826000Y-174418000D01*
X138826000Y-160418000D02*
X124826000Y-160418000D01*
X138826000Y-174418000D02*
X138826000Y-160418000D01*
X124826000Y-174418000D02*
X138826000Y-174418000D01*
X124826000Y-141368000D02*
X124826000Y-155368000D01*
X138826000Y-141368000D02*
X124826000Y-141368000D01*
X138826000Y-155368000D02*
X138826000Y-141368000D01*
X124826000Y-155368000D02*
X138826000Y-155368000D01*
X124826000Y-122318000D02*
X124826000Y-136318000D01*
X138826000Y-122318000D02*
X124826000Y-122318000D01*
X138826000Y-136318000D02*
X138826000Y-122318000D01*
X124826000Y-136318000D02*
X138826000Y-136318000D01*
X124826000Y-103268000D02*
X124826000Y-117268000D01*
X138826000Y-103268000D02*
X124826000Y-103268000D01*
X138826000Y-117268000D02*
X138826000Y-103268000D01*
X124826000Y-117268000D02*
X138826000Y-117268000D01*
X105776000Y-103268000D02*
X105776000Y-117268000D01*
X119776000Y-103268000D02*
X105776000Y-103268000D01*
X119776000Y-117268000D02*
X119776000Y-103268000D01*
X105776000Y-117268000D02*
X119776000Y-117268000D01*
X105776000Y-122318000D02*
X105776000Y-136318000D01*
X119776000Y-122318000D02*
X105776000Y-122318000D01*
X119776000Y-136318000D02*
X119776000Y-122318000D01*
X105776000Y-136318000D02*
X119776000Y-136318000D01*
X105776000Y-141368000D02*
X105776000Y-155368000D01*
X119776000Y-141368000D02*
X105776000Y-141368000D01*
X119776000Y-155368000D02*
X119776000Y-141368000D01*
X105776000Y-155368000D02*
X119776000Y-155368000D01*
X105776000Y-160418000D02*
X105776000Y-174418000D01*
X119776000Y-160418000D02*
X105776000Y-160418000D01*
X119776000Y-174418000D02*
X119776000Y-160418000D01*
X105776000Y-174418000D02*
X119776000Y-174418000D01*
X162926000Y-179468000D02*
X162926000Y-193468000D01*
X176926000Y-179468000D02*
X162926000Y-179468000D01*
X176926000Y-193468000D02*
X176926000Y-179468000D01*
X162926000Y-193468000D02*
X176926000Y-193468000D01*
X143876000Y-179468000D02*
X143876000Y-193468000D01*
X157876000Y-179468000D02*
X143876000Y-179468000D01*
X157876000Y-193468000D02*
X157876000Y-179468000D01*
X143876000Y-193468000D02*
X157876000Y-193468000D01*
X124826000Y-179468000D02*
X124826000Y-193468000D01*
X138826000Y-179468000D02*
X124826000Y-179468000D01*
X138826000Y-193468000D02*
X138826000Y-179468000D01*
X124826000Y-193468000D02*
X138826000Y-193468000D01*
X105776000Y-179468000D02*
X105776000Y-193468000D01*
X119776000Y-179468000D02*
X105776000Y-179468000D01*
X119776000Y-193468000D02*
X119776000Y-179468000D01*
X105776000Y-193468000D02*
X119776000Y-193468000D01*
X98488500Y-466693000D02*
X98488500Y-342868000D01*
X331851000Y-471455500D02*
X103251000Y-471455500D01*
X336613500Y-342868000D02*
X336613500Y-466693000D01*
X336613500Y-466693000D02*
G75*
G02X331851000Y-471455500I-4762500J0D01*
G01*
X103251000Y-471455500D02*
G75*
G02X98488500Y-466693000I0J4762500D01*
G01*
X331851000Y-338105500D02*
G75*
G02X336613500Y-342868000I0J-4762500D01*
G01*
X98488500Y-342868000D02*
G75*
G02X103251000Y-338105500I4762500J0D01*
G01*
X336613500Y-119793000D02*
X336613500Y-195993000D01*
X322326000Y-115030500D02*
X331851000Y-115030500D01*
X317563500Y-100743000D02*
X317563500Y-110268000D01*
X103251000Y-95980500D02*
X312801000Y-95980500D01*
X98488500Y-195993000D02*
X98488500Y-100743000D01*
X103251000Y-200755500D02*
G75*
G02X98488500Y-195993000I0J4762500D01*
G01*
X336613500Y-195993000D02*
G75*
G02X331851000Y-200755500I-4762500J0D01*
G01*
X331851000Y-115030500D02*
G75*
G02X336613500Y-119793000I0J-4762500D01*
G01*
X322326000Y-115030500D02*
G75*
G02X317563500Y-110268000I0J4762500D01*
G01*
X312801000Y-95980500D02*
G75*
G02X317563500Y-100743000I0J-4762500D01*
G01*
X98488500Y-100743000D02*
G75*
G02X103251000Y-95980500I4762500J0D01*
G01*
X336613500Y-331343000D02*
X336613500Y-207518000D01*
X98488500Y-207518000D02*
X98488500Y-331343000D01*
X98488500Y-207518000D02*
G75*
G02X103251000Y-202755500I4762500J0D01*
G01*
X331851000Y-202755500D02*
G75*
G02X336613500Y-207518000I0J-4762500D01*
G01*
X336613500Y-331343000D02*
G75*
G02X331851000Y-336105500I-4762500J0D01*
G01*
X103251000Y-336105500D02*
G75*
G02X98488500Y-331343000I0J4762500D01*
G01*
M02*
