M48
; DRILL file {KiCad (5.1.5)-3} date 2020-11-24 12:45:30
; FORMAT={-:-/ absolute / metric / decimal}
; #@! TF.CreationDate,2020-11-24T12:45:30-08:00
; #@! TF.GenerationSoftware,Kicad,Pcbnew,(5.1.5)-3
FMAT,2
METRIC
T1C0.400
T2C0.600
T3C0.650
T4C0.700
T5C0.800
T6C1.000
T7C1.100
T8C1.500
T9C0.500
T10C1.702
T11C3.000
T12C3.048
T13C3.200
T14C3.988
%
G90
G05
T1
X316.29Y-87.96
X323.85Y-23.812
X323.85Y-42.862
X323.85Y-61.912
X323.85Y-80.962
X323.85Y-100.012
X335.325Y-86.925
X342.9Y-23.812
X342.9Y-42.862
X342.9Y-61.912
X342.9Y-80.962
X342.9Y-100.012
X354.39Y-85.86
X361.95Y-23.812
X361.95Y-42.862
X361.95Y-61.912
X361.95Y-80.962
X361.95Y-100.012
X367.895Y14.145
X370.53Y12.87
X371.03Y-5.08
X373.44Y-85.6
X374.331Y13.094
X378.325Y13.575
X381.0Y-23.812
X381.0Y-42.862
X381.0Y-61.912
X381.0Y-80.962
X381.0Y-100.012
X381.96Y13.21
X386.825Y12.075
X390.825Y13.075
X391.541Y-12.859
X392.49Y-85.05
X394.825Y12.075
X398.7Y13.7
X400.05Y-23.812
X400.05Y-42.862
X400.05Y-61.912
X400.05Y-80.962
X400.05Y-100.012
X402.325Y12.075
X408.178Y9.588
X411.54Y-83.21
X419.1Y-23.812
X419.1Y-42.862
X419.1Y-61.912
X419.1Y-80.962
X419.1Y-100.012
X419.84Y14.844
X419.84Y13.794
X422.529Y-10.065
X428.942Y-77.787
X430.59Y-85.66
X431.419Y-3.969
X437.007Y-2.94
X438.15Y-23.812
X438.15Y-42.862
X438.15Y-61.912
X438.15Y-80.962
X438.15Y-100.012
X440.055Y-4.49
X441.325Y-5.747
X443.357Y-5.747
X448.691Y-3.715
X449.262Y18.034
X449.64Y-88.11
X454.825Y13.075
X457.2Y-23.812
X457.2Y-42.862
X457.2Y-61.912
X457.2Y-80.962
X457.2Y-100.012
X458.825Y12.075
X463.325Y9.075
X464.995Y10.245
X467.995Y-3.969
X468.69Y-82.06
X468.69Y-88.06
X469.98Y10.73
X475.325Y13.075
X476.25Y-23.812
X476.25Y-42.862
X476.25Y-61.912
X476.25Y-80.962
X476.25Y-100.012
X479.1Y11.3
X483.616Y-3.238
X486.791Y-12.859
X487.74Y-88.01
X495.3Y-23.812
X495.3Y-42.862
X495.3Y-61.912
X495.3Y-80.962
X495.3Y-100.012
X496.825Y2.575
X506.79Y-87.96
X514.35Y-23.812
X514.35Y-42.862
X514.35Y-61.912
X514.35Y-80.962
X514.35Y-100.012
X525.84Y-87.91
X528.066Y-31.178
X528.51Y-45.529
X529.082Y-64.834
X533.209Y-22.796
X533.4Y-42.862
X533.4Y-61.912
X533.4Y-80.962
X533.4Y-100.012
X539.115Y-43.942
X539.115Y-62.42
X519.129Y19.003
X519.129Y17.653
X519.979Y19.003
X519.979Y17.653
X520.829Y19.003
X520.829Y17.653
X521.679Y19.003
X521.679Y17.653
X522.529Y19.003
X522.529Y17.653
X523.379Y19.003
X523.379Y17.653
X524.229Y19.003
X524.229Y17.653
X525.079Y19.003
X525.079Y17.653
X332.171Y19.003
X332.171Y17.653
X333.021Y19.003
X333.021Y17.653
X333.871Y19.003
X333.871Y17.653
X334.721Y19.003
X334.721Y17.653
X335.571Y19.003
X335.571Y17.653
X336.421Y19.003
X336.421Y17.653
X337.271Y19.003
X337.271Y17.653
X338.121Y19.003
X338.121Y17.653
T2
X427.895Y1.238
X429.395Y1.238
T3
X537.591Y6.604
X537.591Y5.334
X537.591Y4.064
X538.861Y6.604
X538.861Y5.334
X538.861Y4.064
T4
X323.85Y8.255
X328.93Y8.255
X537.845Y16.51
X537.845Y11.43
X534.035Y16.51
X534.035Y11.43
X528.32Y8.255
X533.4Y8.255
X323.215Y16.51
X323.215Y11.43
X435.11Y3.155
X435.11Y-1.925
X519.43Y8.89
X524.51Y8.89
X332.74Y8.89
X337.82Y8.89
X319.405Y16.51
X319.405Y11.43
T5
X371.705Y17.399
X371.705Y9.779
X461.185Y5.969
X461.185Y-1.651
X347.345Y5.969
X347.345Y-1.651
X354.965Y17.399
X354.965Y9.779
X461.185Y17.399
X461.185Y9.779
X412.155Y16.637
X412.155Y9.017
X414.695Y16.637
X414.695Y9.017
X417.235Y16.637
X417.235Y9.017
X419.775Y16.637
X419.775Y9.017
X422.315Y16.637
X422.315Y9.017
X424.855Y16.637
X424.855Y9.017
X427.395Y16.637
X427.395Y9.017
X429.935Y16.637
X429.935Y9.017
X432.475Y16.637
X432.475Y9.017
X435.015Y16.637
X435.015Y9.017
X437.555Y16.637
X437.555Y9.017
X440.095Y16.637
X440.095Y9.017
X442.635Y16.637
X442.635Y9.017
X445.175Y16.637
X445.175Y9.017
X424.975Y19.685
X432.475Y19.685
X362.585Y5.969
X362.585Y-1.651
X494.665Y17.399
X494.665Y9.779
X403.685Y17.399
X403.685Y9.779
X383.135Y19.939
X383.135Y12.319
X414.79Y3.778
X419.79Y3.778
X379.325Y17.399
X379.325Y9.779
X358.775Y8.509
X358.775Y0.889
X351.155Y8.509
X351.155Y0.889
X474.115Y19.939
X474.115Y12.319
X403.685Y5.969
X403.685Y-1.651
X477.925Y17.399
X477.925Y9.779
X438.405Y5.683
X445.905Y5.683
X529.463Y19.05
X529.463Y11.43
X342.773Y19.05
X342.773Y11.43
X399.875Y19.939
X399.875Y12.319
X392.255Y19.939
X392.255Y12.319
X502.285Y5.969
X502.285Y-1.651
X489.355Y19.939
X489.355Y12.319
X464.995Y19.939
X464.995Y12.319
X464.995Y8.509
X464.995Y0.889
X481.735Y8.509
X481.735Y0.889
X367.895Y8.509
X367.895Y0.889
X494.665Y5.969
X494.665Y-1.651
X424.855Y5.683
X432.355Y5.683
X498.475Y8.509
X498.475Y0.889
X509.905Y5.969
X509.905Y-1.651
X498.475Y19.939
X498.475Y12.319
X399.875Y8.509
X399.875Y0.889
X474.115Y8.509
X474.115Y0.889
X485.545Y17.399
X485.545Y9.779
X485.545Y5.969
X485.545Y-1.651
X375.515Y8.509
X375.515Y0.889
X347.345Y17.399
X347.345Y9.779
X506.095Y8.509
X506.095Y0.889
X457.375Y19.939
X457.375Y12.319
X413.825Y-4.425
X421.325Y-4.425
X438.405Y1.873
X445.905Y1.873
X331.47Y13.335
X339.09Y13.335
X396.065Y5.969
X396.065Y-1.651
X502.285Y17.399
X502.285Y9.779
X388.445Y5.969
X388.445Y-1.651
X477.925Y5.969
X477.925Y-1.651
X453.565Y5.969
X453.565Y-1.651
X367.895Y19.939
X367.895Y12.319
X362.585Y17.399
X362.585Y9.779
X351.155Y19.939
X351.155Y12.319
X383.135Y8.509
X383.135Y0.889
X506.095Y19.939
X506.095Y12.319
X396.065Y17.399
X396.065Y9.779
X375.515Y19.939
X375.515Y12.319
X354.965Y5.969
X354.965Y-1.651
X468.805Y17.399
X468.805Y9.779
X468.805Y5.969
X468.805Y-1.651
X481.735Y19.939
X481.735Y12.319
X358.775Y19.939
X358.775Y12.319
X327.787Y19.05
X327.787Y11.43
X489.355Y8.509
X489.355Y0.889
X509.905Y17.399
X509.905Y9.779
X379.325Y5.969
X379.325Y-1.651
X371.705Y5.969
X371.705Y-1.651
X514.477Y19.05
X514.477Y11.43
X453.565Y17.399
X453.565Y9.779
X457.375Y8.509
X457.375Y0.889
X518.16Y13.335
X525.78Y13.335
X413.825Y-0.925
X421.325Y-0.925
X388.445Y17.399
X388.445Y9.779
X392.255Y8.509
X392.255Y0.889
T6
X535.663Y-6.787
X535.663Y-21.287
X538.163Y-6.787
X540.663Y-6.787
X540.663Y-21.287
T7
X332.613Y3.81
X332.613Y-0.69
X339.113Y3.81
X339.113Y-0.69
X321.818Y3.81
X321.818Y-0.69
X328.318Y3.81
X328.318Y-0.69
T9
X377.875Y-109.787
X377.875Y-111.287
X378.625Y-109.787
X378.625Y-111.287
X379.375Y-109.787
X379.375Y-111.287
X477.875Y-109.787
X477.875Y-111.287
X478.625Y-109.787
X478.625Y-111.287
X479.375Y-109.787
X479.375Y-111.287
X477.875Y25.562
X477.875Y24.062
X478.625Y25.562
X478.625Y24.062
X479.375Y25.562
X479.375Y24.062
X427.875Y-109.787
X427.875Y-111.287
X428.625Y-109.787
X428.625Y-111.287
X429.375Y-109.787
X429.375Y-111.287
X527.875Y25.562
X527.875Y24.062
X528.625Y25.562
X528.625Y24.062
X529.375Y25.562
X529.375Y24.062
X377.875Y25.562
X377.875Y24.062
X378.625Y25.562
X378.625Y24.062
X379.375Y25.562
X379.375Y24.062
X427.875Y25.562
X427.875Y24.062
X428.625Y25.562
X428.625Y24.062
X429.375Y25.562
X429.375Y24.062
X327.875Y-109.787
X327.875Y-111.287
X328.625Y-109.787
X328.625Y-111.287
X329.375Y-109.787
X329.375Y-111.287
X327.875Y25.562
X327.875Y24.062
X328.625Y25.562
X328.625Y24.062
X329.375Y25.562
X329.375Y24.062
X527.875Y-109.787
X527.875Y-111.287
X528.625Y-109.787
X528.625Y-111.287
X529.375Y-109.787
X529.375Y-111.287
T10
X452.12Y-38.1
X462.28Y-38.1
X528.32Y-76.2
X538.48Y-76.2
X414.02Y-57.15
X424.18Y-57.15
X528.32Y-57.15
X538.48Y-57.15
X490.22Y-19.05
X500.38Y-19.05
X490.22Y-76.2
X500.38Y-76.2
X318.77Y-95.25
X328.93Y-95.25
X452.12Y-95.25
X462.28Y-95.25
X394.97Y-76.2
X405.13Y-76.2
X414.02Y-95.25
X424.18Y-95.25
X375.92Y-38.1
X386.08Y-38.1
X490.22Y-95.25
X500.38Y-95.25
X452.12Y-57.15
X462.28Y-57.15
X337.82Y-76.2
X347.98Y-76.2
X433.07Y-76.2
X443.23Y-76.2
X394.97Y-95.25
X405.13Y-95.25
X509.27Y-76.2
X519.43Y-76.2
X490.22Y-38.1
X500.38Y-38.1
X318.77Y-38.1
X328.93Y-38.1
X471.17Y-38.1
X481.33Y-38.1
X452.12Y-76.2
X462.28Y-76.2
X337.82Y-95.25
X347.98Y-95.25
X433.07Y-95.25
X443.23Y-95.25
X394.97Y-38.1
X405.13Y-38.1
X414.02Y-76.2
X424.18Y-76.2
X471.17Y-76.2
X481.33Y-76.2
X318.77Y-19.05
X328.93Y-19.05
X375.92Y-57.15
X386.08Y-57.15
X356.87Y-57.15
X367.03Y-57.15
X356.87Y-19.05
X367.03Y-19.05
X318.77Y-76.2
X328.93Y-76.2
X337.82Y-57.15
X347.98Y-57.15
X509.27Y-57.15
X519.43Y-57.15
X509.27Y-38.1
X519.43Y-38.1
X528.32Y-38.1
X538.48Y-38.1
X528.32Y-95.25
X538.48Y-95.25
X471.17Y-95.25
X481.33Y-95.25
X375.92Y-76.2
X386.08Y-76.2
X318.77Y-57.15
X328.93Y-57.15
X394.97Y-19.05
X405.13Y-19.05
X433.07Y-19.05
X443.23Y-19.05
X356.87Y-38.1
X367.03Y-38.1
X452.12Y-19.05
X462.28Y-19.05
X337.82Y-38.1
X347.98Y-38.1
X414.02Y-38.1
X424.18Y-38.1
X414.02Y-19.05
X424.18Y-19.05
X356.87Y-95.25
X367.03Y-95.25
X356.87Y-76.2
X367.03Y-76.2
X471.17Y-57.15
X481.33Y-57.15
X433.07Y-38.1
X443.23Y-38.1
X337.82Y-19.05
X347.98Y-19.05
X471.17Y-19.05
X481.33Y-19.05
X509.27Y-19.05
X519.43Y-19.05
X423.545Y-95.25
X433.705Y-95.25
X394.97Y-57.15
X405.13Y-57.15
X509.27Y-95.25
X519.43Y-95.25
X375.92Y-19.05
X386.08Y-19.05
X490.22Y-57.15
X500.38Y-57.15
X375.92Y-95.25
X386.08Y-95.25
X433.07Y-57.15
X443.23Y-57.15
T11
X320.04Y-92.71
X326.39Y-90.17
X453.39Y-92.71
X459.74Y-90.17
X396.24Y-73.66
X402.59Y-71.12
X415.29Y-92.71
X421.64Y-90.17
X377.19Y-35.56
X383.54Y-33.02
X491.49Y-92.71
X497.84Y-90.17
X453.39Y-54.61
X459.74Y-52.07
X339.09Y-73.66
X345.44Y-71.12
X434.34Y-73.66
X440.69Y-71.12
X396.24Y-92.71
X402.59Y-90.17
X510.54Y-73.66
X516.89Y-71.12
X491.49Y-35.56
X497.84Y-33.02
X320.04Y-35.56
X326.39Y-33.02
X472.44Y-35.56
X478.79Y-33.02
X453.39Y-73.66
X459.74Y-71.12
X339.09Y-92.71
X345.44Y-90.17
X434.34Y-92.71
X440.69Y-90.17
X396.24Y-35.56
X402.59Y-33.02
X415.29Y-73.66
X421.64Y-71.12
X472.44Y-73.66
X478.79Y-71.12
X320.04Y-16.51
X326.39Y-13.97
X377.19Y-54.61
X383.54Y-52.07
X358.14Y-54.61
X364.49Y-52.07
X358.14Y-16.51
X364.49Y-13.97
X320.04Y-73.66
X326.39Y-71.12
X339.09Y-54.61
X345.44Y-52.07
X510.54Y-54.61
X516.89Y-52.07
X510.54Y-35.56
X516.89Y-33.02
X529.59Y-35.56
X535.94Y-33.02
X529.59Y-92.71
X535.94Y-90.17
X472.44Y-92.71
X478.79Y-90.17
X377.19Y-73.66
X383.54Y-71.12
X320.04Y-54.61
X326.39Y-52.07
X396.24Y-16.51
X402.59Y-13.97
X434.34Y-16.51
X440.69Y-13.97
X358.14Y-35.56
X364.49Y-33.02
X453.39Y-16.51
X459.74Y-13.97
X339.09Y-35.56
X345.44Y-33.02
X415.29Y-35.56
X421.64Y-33.02
X415.29Y-16.51
X421.64Y-13.97
X358.14Y-92.71
X364.49Y-90.17
X358.14Y-73.66
X364.49Y-71.12
X472.44Y-54.61
X478.79Y-52.07
X434.34Y-35.56
X440.69Y-33.02
X339.09Y-16.51
X345.44Y-13.97
X472.44Y-16.51
X478.79Y-13.97
X510.54Y-16.51
X516.89Y-13.97
X426.085Y-100.33
X432.435Y-97.79
X396.24Y-54.61
X402.59Y-52.07
X510.54Y-92.71
X516.89Y-90.17
X377.19Y-16.51
X383.54Y-13.97
X491.49Y-54.61
X497.84Y-52.07
X377.19Y-92.71
X383.54Y-90.17
X434.34Y-54.61
X440.69Y-52.07
X453.39Y-35.56
X459.74Y-33.02
X529.59Y-73.66
X535.94Y-71.12
X415.29Y-54.61
X421.64Y-52.07
X529.59Y-54.61
X535.94Y-52.07
X491.49Y-16.51
X497.84Y-13.97
X491.49Y-73.66
X497.84Y-71.12
T12
X416.725Y-102.235
X440.525Y-102.235
T13
X390.525Y-47.625
X314.325Y19.05
X314.325Y125.825
X542.925Y19.05
X314.325Y-240.125
X390.525Y-182.975
X314.325Y-104.775
X542.925Y30.575
X542.925Y-104.775
X314.325Y-116.3
X466.725Y-182.975
X523.875Y-9.525
X542.925Y106.775
X314.325Y30.575
X542.925Y-28.575
X314.325Y-9.525
X542.925Y-116.3
X542.925Y-240.125
X523.875Y125.825
X466.725Y-47.625
T14
X457.2Y-76.2
X342.9Y-95.25
X438.15Y-95.25
X400.05Y-38.1
X419.1Y-76.2
X476.25Y-76.2
X323.85Y-19.05
X381.0Y-57.15
X361.95Y-57.15
X361.95Y-19.05
X323.85Y-76.2
X342.9Y-57.15
X514.35Y-57.15
X514.35Y-38.1
X533.4Y-38.1
X533.4Y-95.25
X476.25Y-95.25
X381.0Y-76.2
X323.85Y-57.15
X400.05Y-19.05
X438.15Y-19.05
X361.95Y-38.1
X457.2Y-19.05
X342.9Y-38.1
X419.1Y-38.1
X419.1Y-19.05
X361.95Y-95.25
X361.95Y-76.2
X476.25Y-57.15
X438.15Y-38.1
X342.9Y-19.05
X476.25Y-19.05
X514.35Y-19.05
X428.625Y-95.25
X400.05Y-57.15
X514.35Y-95.25
X381.0Y-19.05
X495.3Y-57.15
X381.0Y-95.25
X438.15Y-57.15
X457.2Y-38.1
X533.4Y-76.2
X419.1Y-57.15
X533.4Y-57.15
X495.3Y-19.05
X495.3Y-76.2
X323.85Y-95.25
X457.2Y-95.25
X400.05Y-76.2
X419.1Y-95.25
X381.0Y-38.1
X495.3Y-95.25
X416.725Y-86.995
X440.525Y-86.995
X457.2Y-57.15
X342.9Y-76.2
X438.15Y-76.2
X400.05Y-95.25
X514.35Y-76.2
X495.3Y-38.1
X323.85Y-38.1
X476.25Y-38.1
T2
G00X517.779Y22.413
M15
G01X517.779Y21.613
M16
G05
G00X517.779Y19.383
M15
G01X517.779Y17.883
M16
G05
G00X526.429Y22.413
M15
G01X526.429Y21.613
M16
G05
G00X526.429Y19.383
M15
G01X526.429Y17.883
M16
G05
G00X330.821Y22.413
M15
G01X330.821Y21.613
M16
G05
G00X330.821Y19.383
M15
G01X330.821Y17.883
M16
G05
G00X339.471Y22.413
M15
G01X339.471Y21.613
M16
G05
G00X339.471Y19.383
M15
G01X339.471Y17.883
M16
G05
T8
G00X532.562Y-13.637
M15
G01X532.562Y-14.938
M16
G05
G00X543.762Y-13.637
M15
G01X543.762Y-14.938
M16
G05
T0
M30
